<svg preserveAspectRatio="xMidYMid meet" xmlns="http://www.w3.org/2000/svg" viewBox="-0.0786 0.0001 32.11 22.02"><g transform="translate(0, 9.233)"><rect x="25.01" y="-0.1058" width="2.918" height="0.2116" ry="0.1058" fill="currentColor"/></g><g transform="translate(0, 3.233)"><rect x="17.95" y="-0.1058" width="1.901" height="0.2116" ry="0.1058" fill="currentColor"/></g><g transform="translate(0, 8.233)"><line stroke-linejoin="round" stroke-linecap="round" stroke-width="0.1116" stroke="currentColor" x1="0.0558" y1="0" x2="31.98" y2="0"/></g><g transform="translate(0, 7.233)"><line stroke-linejoin="round" stroke-linecap="round" stroke-width="0.1116" stroke="currentColor" x1="0.0558" y1="0" x2="31.98" y2="0"/></g><g transform="translate(0, 6.233)"><line stroke-linejoin="round" stroke-linecap="round" stroke-width="0.1116" stroke="currentColor" x1="0.0558" y1="0" x2="31.98" y2="0"/></g><g transform="translate(0, 5.233)"><line stroke-linejoin="round" stroke-linecap="round" stroke-width="0.1116" stroke="currentColor" x1="0.0558" y1="0" x2="31.98" y2="0"/></g><g transform="translate(0, 4.233)"><line stroke-linejoin="round" stroke-linecap="round" stroke-width="0.1116" stroke="currentColor" x1="0.0558" y1="0" x2="31.98" y2="0"/></g><g transform="translate(31.82, 16.04)"><rect x="0" y="-3.75" width="0.212" height="7.5" ry="0" fill="currentColor"/></g><g transform="translate(31.28, 16.04)"><rect x="0" y="-3.75" width="0.212" height="7.5" ry="0" fill="currentColor"/></g><g transform="translate(0, 19.79)"><line stroke-linejoin="round" stroke-linecap="round" stroke-width="0.1116" stroke="currentColor" x1="0.0558" y1="0" x2="31.98" y2="0"/></g><g transform="translate(0, 18.29)"><line stroke-linejoin="round" stroke-linecap="round" stroke-width="0.1116" stroke="currentColor" x1="0.0558" y1="0" x2="31.98" y2="0"/></g><g transform="translate(0, 16.79)"><line stroke-linejoin="round" stroke-linecap="round" stroke-width="0.1116" stroke="currentColor" x1="0.0558" y1="0" x2="31.98" y2="0"/></g><g transform="translate(0, 15.29)"><line stroke-linejoin="round" stroke-linecap="round" stroke-width="0.1116" stroke="currentColor" x1="0.0558" y1="0" x2="31.98" y2="0"/></g><g transform="translate(0, 13.79)"><line stroke-linejoin="round" stroke-linecap="round" stroke-width="0.1116" stroke="currentColor" x1="0.0558" y1="0" x2="31.98" y2="0"/></g><g transform="translate(0, 12.29)"><line stroke-linejoin="round" stroke-linecap="round" stroke-width="0.1116" stroke="currentColor" x1="0.0558" y1="0" x2="31.98" y2="0"/></g><g transform="translate(31.82, 6.233)"><rect x="0" y="-2" width="0.212" height="4" ry="0" fill="currentColor"/></g><g transform="translate(31.28, 6.233)"><rect x="0" y="-2" width="0.212" height="4" ry="0" fill="currentColor"/></g><g transform="translate(23.38, 16.04)"><rect x="0" y="-3.75" width="0.212" height="7.5" ry="0" fill="currentColor"/></g><g transform="translate(23.38, 6.233)"><rect x="0" y="-2" width="0.212" height="4" ry="0" fill="currentColor"/></g><g transform="translate(9.085, 8.733)"><path transform="scale(0.004, -0.004)" d="M74 -105c39 0 201 110 228 142c7 9 10 18 10 27c0 21 -18 41 -41 41c-39 0 -201 -110 -228 -142c-7 -9 -10 -18 -10 -27c0 -21 18 -41 41 -41zM0 -65c0 43 21 202 256 202c42 0 89 -11 89 -72c0 -43 -20 -202 -255 -202c-42 0 -90 11 -90 72z" fill="currentColor"/></g><g transform="translate(9.085, 5.733)"><path transform="scale(0.004, -0.004)" d="M74 -105c39 0 201 110 228 142c7 9 10 18 10 27c0 21 -18 41 -41 41c-39 0 -201 -110 -228 -142c-7 -9 -10 -18 -10 -27c0 -21 18 -41 41 -41zM0 -65c0 43 21 202 256 202c42 0 89 -11 89 -72c0 -43 -20 -202 -255 -202c-42 0 -90 11 -90 72z" fill="currentColor"/></g><g transform="translate(7.777, 4.233)"><path transform="scale(0.004, -0.004)" d="M74 -105c39 0 201 110 228 142c7 9 10 18 10 27c0 21 -18 41 -41 41c-39 0 -201 -110 -228 -142c-7 -9 -10 -18 -10 -27c0 -21 18 -41 41 -41zM0 -65c0 43 21 202 256 202c42 0 89 -11 89 -72c0 -43 -20 -202 -255 -202c-42 0 -90 11 -90 72z" fill="currentColor"/></g><g transform="translate(9.085, 3.733)"><path transform="scale(0.004, -0.004)" d="M74 -105c39 0 201 110 228 142c7 9 10 18 10 27c0 21 -18 41 -41 41c-39 0 -201 -110 -228 -142c-7 -9 -10 -18 -10 -27c0 -21 18 -41 41 -41zM0 -65c0 43 21 202 256 202c42 0 89 -11 89 -72c0 -43 -20 -202 -255 -202c-42 0 -90 11 -90 72z" fill="currentColor"/></g><g transform="translate(9.085, 2.724)"><text font-family="serif" font-size="2.2" text-anchor="start" fill="currentColor"><tspan>D</tspan></text></g><g transform="translate(10.69, 2.124)"><text font-family="serif" font-size="1.746" text-anchor="start" fill="currentColor"><tspan>m11</tspan></text></g><g transform="translate(0.8, 7.233)"><path transform="scale(0.004, -0.004)" d="M265 -635h-5c-108 0 -196 87 -196 196c0 58 53 104 112 104c54 0 95 -48 95 -104c0 -52 -43 -95 -95 -95c-10 0 -20 2 -29 6c26 -38 68 -63 116 -63h3zM403 150c28 -135 50 -272 59 -352c75 27 110 93 110 161c0 88 -59 178 -169 191zM75 26c0 -112 97 -245 277 -245 c21 0 43 2 67 6c-7 65 -27 206 -61 363c-79 -8 -124 -61 -124 -119c0 -43 25 -89 80 -121c5 -5 7 -11 7 -16c0 -12 -10 -23 -22 -23c-16 0 -127 63 -127 188c0 89 58 175 161 198c-14 58 -29 116 -46 173c-106 -122 -212 -244 -212 -404zM354 1194c30 0 145 -207 145 -361 c0 -143 -85 -255 -178 -364c21 -68 40 -137 57 -206c4 0 8 1 12 1c156 0 256 -130 256 -263c0 -113 -74 -212 -180 -246c3 -34 4 -68 4 -102c0 -20 0 -40 -1 -60c-7 -120 -89 -225 -204 -228l1 44c93 2 153 92 159 190c1 19 2 37 2 56c0 30 -2 60 -4 90 c-28 -5 -54 -8 -79 -8c-240 0 -342 219 -342 375c0 177 130 307 246 442c-31 98 -53 170 -53 347c0 188 143 293 159 293zM427 919c0 62 -20 123 -21 123c-40 -19 -161 -92 -161 -259c0 -42 7 -93 37 -189c78 95 145 199 145 325z" fill="currentColor"/></g><g transform="translate(1.485, 10.7)"><text font-family="serif" font-style="italic" font-size="1.386" text-anchor="start" fill="currentColor"><tspan>8</tspan></text></g><g transform="translate(4.885, 6.233)"><path transform="scale(0.004, -0.004)" d="M432 -89c0 -21 -50 -175 -182 -175c-59 0 -250 20 -250 264c0 63 18 264 250 264c115 0 174 -109 174 -165c0 -39 -30 -70 -66 -70c-30 0 -74 23 -74 73c0 38 27 76 71 76c4 0 7 0 11 -1c-27 36 -69 59 -116 59c-106 0 -113 -74 -113 -188c0 -15 1 -31 1 -48 s-1 -33 -1 -48c0 -114 7 -188 113 -188c79 0 136 70 155 150c2 7 7 10 13 10c7 0 14 -5 14 -13z" fill="currentColor"/></g><g transform="translate(10.6, 19.79)"><path stroke-width="0.1" stroke-linejoin="round" stroke-linecap="round" stroke="currentColor" fill="currentColor" d="M0 0.602C0.3333 0.3371 0.3333 -0.3371 0 -0.602C0.2583 -0.3371 0.2583 0.3371 0 0.602z"/></g><g transform="translate(8.632, 19.79)"><path stroke-width="0.1" stroke-linejoin="round" stroke-linecap="round" stroke="currentColor" fill="currentColor" d="M0 0.602C-0.3333 0.3371 -0.3333 -0.3371 0 -0.602C-0.2583 -0.3371 -0.2583 0.3371 0 0.602z"/></g><g transform="translate(8.732, 20.37)"><text font-family="serif" font-weight="bold" font-size="1.746" text-anchor="start" fill="currentColor"><tspan>10</tspan></text></g><g transform="translate(8.732, 17.37)"><text font-family="serif" font-weight="bold" font-size="1.746" text-anchor="start" fill="currentColor"><tspan>10</tspan></text></g><g transform="translate(8.732, 15.87)"><text font-family="serif" font-weight="bold" font-size="1.746" text-anchor="start" fill="currentColor"><tspan>10</tspan></text></g><g transform="translate(9.173, 14.36)"><text font-family="serif" font-weight="bold" font-size="1.746" text-anchor="start" fill="currentColor"><tspan>8</tspan></text></g><g transform="translate(0.9406, 14.58)"><text font-family="sans" font-weight="bold" font-size="2.772" text-anchor="start" fill="currentColor"><tspan>T</tspan></text></g><g transform="translate(0.8, 17.05)"><text font-family="sans" font-weight="bold" font-size="2.772" text-anchor="start" fill="currentColor"><tspan>A</tspan></text></g><g transform="translate(0.8201, 19.51)"><text font-family="sans" font-weight="bold" font-size="2.772" text-anchor="start" fill="currentColor"><tspan>B</tspan></text></g><g transform="translate(9.158, 6.233)"><rect x="-0.0725" y="-2.247" width="0.1451" height="7.247" ry="0.0471" fill="currentColor"/></g><g transform="translate(0, 22.02)"><text font-family="serif" font-size="1.746" text-anchor="start" fill="currentColor"><tspan>1</tspan></text></g><g transform="translate(8.885, 8.733)"><path transform="scale(0.002, -0.002)" d="M-31 250c0 -21 -63 -57 -63 -250s63 -229 63 -250c0 -10 -9 -19 -19 -19c-5 0 -12 2 -16 8c-54 77 -90 167 -90 261s36 184 90 261c4 6 11 8 16 8c10 0 19 -9 19 -19z" fill="currentColor"/></g><g transform="translate(10.67, 8.733)"><path transform="scale(0.002, -0.002)" d="M31 -250c0 21 63 57 63 250s-63 229 -63 250c0 10 9 19 19 19c5 0 12 -2 16 -8c54 -77 90 -167 90 -261s-36 -184 -90 -261c-4 -6 -11 -8 -16 -8c-10 0 -19 9 -19 19z" fill="currentColor"/></g><g transform="translate(18.12, 7.233)"><path transform="scale(0.004, -0.004)" d="M74 -105c39 0 201 110 228 142c7 9 10 18 10 27c0 21 -18 41 -41 41c-39 0 -201 -110 -228 -142c-7 -9 -10 -18 -10 -27c0 -21 18 -41 41 -41zM0 -65c0 43 21 202 256 202c42 0 89 -11 89 -72c0 -43 -20 -202 -255 -202c-42 0 -90 11 -90 72z" fill="currentColor"/></g><g transform="translate(16.82, 5.233)"><path transform="scale(0.004, -0.004)" d="M74 -105c39 0 201 110 228 142c7 9 10 18 10 27c0 21 -18 41 -41 41c-39 0 -201 -110 -228 -142c-7 -9 -10 -18 -10 -27c0 -21 18 -41 41 -41zM0 -65c0 43 21 202 256 202c42 0 89 -11 89 -72c0 -43 -20 -202 -255 -202c-42 0 -90 11 -90 72z" fill="currentColor"/></g><g transform="translate(18.12, 4.733)"><path transform="scale(0.004, -0.004)" d="M74 -105c39 0 201 110 228 142c7 9 10 18 10 27c0 21 -18 41 -41 41c-39 0 -201 -110 -228 -142c-7 -9 -10 -18 -10 -27c0 -21 18 -41 41 -41zM0 -65c0 43 21 202 256 202c42 0 89 -11 89 -72c0 -43 -20 -202 -255 -202c-42 0 -90 11 -90 72z" fill="currentColor"/></g><g transform="translate(18.12, 3.233)"><path transform="scale(0.004, -0.004)" d="M74 -105c39 0 201 110 228 142c7 9 10 18 10 27c0 21 -18 41 -41 41c-39 0 -201 -110 -228 -142c-7 -9 -10 -18 -10 -27c0 -21 18 -41 41 -41zM0 -65c0 43 21 202 256 202c42 0 89 -11 89 -72c0 -43 -20 -202 -255 -202c-42 0 -90 11 -90 72z" fill="currentColor"/></g><g transform="translate(18.12, 2.191)"><text font-family="serif" font-size="2.2" text-anchor="start" fill="currentColor"><tspan>G</tspan></text></g><g transform="translate(19.73, 1.591)"><text font-family="serif" font-size="1.746" text-anchor="start" fill="currentColor"><tspan>7alt.</tspan></text></g><g transform="translate(19.64, 18.29)"><path stroke-width="0.1" stroke-linejoin="round" stroke-linecap="round" stroke="currentColor" fill="currentColor" d="M0 0.602C0.3333 0.3371 0.3333 -0.3371 0 -0.602C0.2583 -0.3371 0.2583 0.3371 0 0.602z"/></g><g transform="translate(17.67, 18.29)"><path stroke-width="0.1" stroke-linejoin="round" stroke-linecap="round" stroke="currentColor" fill="currentColor" d="M0 0.602C-0.3333 0.3371 -0.3333 -0.3371 0 -0.602C-0.2583 -0.3371 -0.2583 0.3371 0 0.602z"/></g><g transform="translate(17.77, 18.87)"><text font-family="serif" font-weight="bold" font-size="1.746" text-anchor="start" fill="currentColor"><tspan>10</tspan></text></g><g transform="translate(17.81, 17.38)"><text font-family="serif" font-weight="bold" font-size="1.746" text-anchor="start" fill="currentColor"><tspan>11</tspan></text></g><g transform="translate(18.21, 15.86)"><text font-family="serif" font-weight="bold" font-size="1.746" text-anchor="start" fill="currentColor"><tspan>8</tspan></text></g><g transform="translate(18.21, 14.37)"><text font-family="serif" font-weight="bold" font-size="1.746" text-anchor="start" fill="currentColor"><tspan>9</tspan></text></g><g transform="translate(18.2, 6.233)"><rect x="-0.0725" y="-2.747" width="0.1451" height="6.747" ry="0.0471" fill="currentColor"/></g><g transform="translate(15.67, 5.233)"><path transform="scale(0.004, -0.004)" d="M29 39l-2 -64v-11c0 -22 2 -43 5 -65c44 38 91 80 91 138c0 33 -13 66 -42 66c-31 0 -51 -31 -52 -64zM-28 454c9 5 18 8 28 8s19 -3 28 -8l-7 -343c25 23 58 36 92 36c51 0 87 -49 87 -103c0 -79 -84 -117 -144 -169c-16 -14 -25 -41 -47 -41c-14 0 -25 13 -25 27z" fill="currentColor"/></g><g transform="translate(14.57, 4.733)"><path transform="scale(0.004, -0.004)" d="M29 39l-2 -64v-11c0 -22 2 -43 5 -65c44 38 91 80 91 138c0 33 -13 66 -42 66c-31 0 -51 -31 -52 -64zM-28 454c9 5 18 8 28 8s19 -3 28 -8l-7 -343c25 23 58 36 92 36c51 0 87 -49 87 -103c0 -79 -84 -117 -144 -169c-16 -14 -25 -41 -47 -41c-14 0 -25 13 -25 27z" fill="currentColor"/></g><g transform="translate(16.97, 3.233)"><path transform="scale(0.004, -0.004)" d="M29 39l-2 -64v-11c0 -22 2 -43 5 -65c44 38 91 80 91 138c0 33 -13 66 -42 66c-31 0 -51 -31 -52 -64zM-28 454c9 5 18 8 28 8s19 -3 28 -8l-7 -343c25 23 58 36 92 36c51 0 87 -49 87 -103c0 -79 -84 -117 -144 -169c-16 -14 -25 -41 -47 -41c-14 0 -25 13 -25 27z" fill="currentColor"/></g><g transform="translate(17.92, 7.233)"><path transform="scale(0.002, -0.002)" d="M-31 250c0 -21 -63 -57 -63 -250s63 -229 63 -250c0 -10 -9 -19 -19 -19c-5 0 -12 2 -16 8c-54 77 -90 167 -90 261s36 184 90 261c4 6 11 8 16 8c10 0 19 -9 19 -19z" fill="currentColor"/></g><g transform="translate(19.7, 7.233)"><path transform="scale(0.002, -0.002)" d="M31 -250c0 21 63 57 63 250s-63 229 -63 250c0 10 9 19 19 19c5 0 12 -2 16 -8c54 -77 90 -167 90 -261s-36 -184 -90 -261c-4 -6 -11 -8 -16 -8c-10 0 -19 9 -19 19z" fill="currentColor"/></g><g transform="translate(25.49, 9.233)"><path transform="scale(0.004, -0.004)" d="M343 -25c0 100 -89 137 -131 137c-21 0 -69 -9 -69 -89c0 -89 75 -134 130 -134c20 0 70 8 70 86zM243 137c143 0 243 -65 243 -137s-100 -137 -243 -137s-243 65 -243 137s100 137 243 137z" fill="currentColor"/></g><g transform="translate(25.49, 6.733)"><path transform="scale(0.004, -0.004)" d="M343 -25c0 100 -89 137 -131 137c-21 0 -69 -9 -69 -89c0 -89 75 -134 130 -134c20 0 70 8 70 86zM243 137c143 0 243 -65 243 -137s-100 -137 -243 -137s-243 65 -243 137s100 137 243 137z" fill="currentColor"/></g><g transform="translate(25.49, 5.233)"><path transform="scale(0.004, -0.004)" d="M343 -25c0 100 -89 137 -131 137c-21 0 -69 -9 -69 -89c0 -89 75 -134 130 -134c20 0 70 8 70 86zM243 137c143 0 243 -65 243 -137s-100 -137 -243 -137s-243 65 -243 137s100 137 243 137z" fill="currentColor"/></g><g transform="translate(25.49, 3.733)"><path transform="scale(0.004, -0.004)" d="M343 -25c0 100 -89 137 -131 137c-21 0 -69 -9 -69 -89c0 -89 75 -134 130 -134c20 0 70 8 70 86zM243 137c143 0 243 -65 243 -137s-100 -137 -243 -137s-243 65 -243 137s100 137 243 137z" fill="currentColor"/></g><g transform="translate(25.49, 2.293)"><text font-family="serif" font-size="2.2" text-anchor="start" fill="currentColor"><tspan>C</tspan></text></g><g transform="translate(27.13, 1.051)"><text font-family="serif" font-size="1.555" text-anchor="start" fill="currentColor"><tspan>6</tspan></text></g><g transform="translate(27.51, 1.475)"><rect x="-0.3816" y="-0.0354" width="0.7632" height="0.0707" ry="0" fill="currentColor"/></g><g transform="translate(27.13, 2.703)"><text font-family="serif" font-size="1.555" text-anchor="start" fill="currentColor"><tspan>9</tspan></text></g><g transform="translate(26.57, 19.79)"><path stroke-width="0.1" stroke-linejoin="round" stroke-linecap="round" stroke="currentColor" fill="currentColor" d="M0 0.5998C0.3333 0.3359 0.3333 -0.3359 0 -0.5998C0.2583 -0.3359 0.2583 0.3359 0 0.5998z"/></g><g transform="translate(25.48, 19.79)"><path stroke-width="0.1" stroke-linejoin="round" stroke-linecap="round" stroke="currentColor" fill="currentColor" d="M0 0.5998C-0.3333 0.3359 -0.3333 -0.3359 0 -0.5998C-0.2583 -0.3359 -0.2583 0.3359 0 0.5998z"/></g><g transform="translate(25.58, 20.36)"><text font-family="serif" font-weight="bold" font-size="1.746" text-anchor="start" fill="currentColor"><tspan>8</tspan></text></g><g transform="translate(25.58, 17.36)"><text font-family="serif" font-weight="bold" font-size="1.746" text-anchor="start" fill="currentColor"><tspan>7</tspan></text></g><g transform="translate(25.58, 15.86)"><text font-family="serif" font-weight="bold" font-size="1.746" text-anchor="start" fill="currentColor"><tspan>7</tspan></text></g><g transform="translate(25.58, 14.36)"><text font-family="serif" font-weight="bold" font-size="1.746" text-anchor="start" fill="currentColor"><tspan>8</tspan></text></g><g transform="translate(-0.0786, 12.01)"><rect x="0" y="-7.834" width="0.1786" height="15.67" ry="0.0558" fill="currentColor"/></g><g transform="translate(23.49, 22.02)"><text font-family="serif" font-size="1.746" text-anchor="start" fill="currentColor"><tspan>2</tspan></text></g><g transform="translate(25.29, 9.233)"><path transform="scale(0.002, -0.002)" d="M-31 250c0 -21 -63 -57 -63 -250s63 -229 63 -250c0 -10 -9 -19 -19 -19c-5 0 -12 2 -16 8c-54 77 -90 167 -90 261s36 184 90 261c4 6 11 8 16 8c10 0 19 -9 19 -19z" fill="currentColor"/></g><g transform="translate(27.64, 9.233)"><path transform="scale(0.002, -0.002)" d="M31 -250c0 21 63 57 63 250s-63 229 -63 250c0 10 9 19 19 19c5 0 12 -2 16 -8c54 -77 90 -167 90 -261s-36 -184 -90 -261c-4 -6 -11 -8 -16 -8c-10 0 -19 9 -19 19z" fill="currentColor"/></g></svg>