<svg preserveAspectRatio="xMidYMid meet" xmlns="http://www.w3.org/2000/svg" viewBox="-0.0786 -0 80.87 22.71"><g transform="translate(0, 10.67)"><line stroke-linejoin="round" stroke-linecap="round" stroke-width="0.1116" stroke="currentColor" x1="0.0558" y1="0" x2="80.73" y2="0"/></g><g transform="translate(0, 9.673)"><line stroke-linejoin="round" stroke-linecap="round" stroke-width="0.1116" stroke="currentColor" x1="0.0558" y1="0" x2="80.73" y2="0"/></g><g transform="translate(0, 8.673)"><line stroke-linejoin="round" stroke-linecap="round" stroke-width="0.1116" stroke="currentColor" x1="0.0558" y1="0" x2="80.73" y2="0"/></g><g transform="translate(0, 7.673)"><line stroke-linejoin="round" stroke-linecap="round" stroke-width="0.1116" stroke="currentColor" x1="0.0558" y1="0" x2="80.73" y2="0"/></g><g transform="translate(0, 6.673)"><line stroke-linejoin="round" stroke-linecap="round" stroke-width="0.1116" stroke="currentColor" x1="0.0558" y1="0" x2="80.73" y2="0"/></g><g transform="translate(0, 22.05)"><line stroke-linejoin="round" stroke-linecap="round" stroke-width="0.1116" stroke="currentColor" x1="0.0558" y1="0" x2="80.73" y2="0"/></g><g transform="translate(0, 20.55)"><line stroke-linejoin="round" stroke-linecap="round" stroke-width="0.1116" stroke="currentColor" x1="0.0558" y1="0" x2="80.73" y2="0"/></g><g transform="translate(0, 19.05)"><line stroke-linejoin="round" stroke-linecap="round" stroke-width="0.1116" stroke="currentColor" x1="0.0558" y1="0" x2="80.73" y2="0"/></g><g transform="translate(0, 17.55)"><line stroke-linejoin="round" stroke-linecap="round" stroke-width="0.1116" stroke="currentColor" x1="0.0558" y1="0" x2="80.73" y2="0"/></g><g transform="translate(0, 16.05)"><line stroke-linejoin="round" stroke-linecap="round" stroke-width="0.1116" stroke="currentColor" x1="0.0558" y1="0" x2="80.73" y2="0"/></g><g transform="translate(0, 14.55)"><line stroke-linejoin="round" stroke-linecap="round" stroke-width="0.1116" stroke="currentColor" x1="0.0558" y1="0" x2="80.73" y2="0"/></g><g transform="translate(0, 2.673)"><rect x="76.45" y="-0.1058" width="1.954" height="0.2116" ry="0.1058" fill="currentColor"/></g><g transform="translate(0, 3.673)"><rect x="76.45" y="-0.1058" width="1.954" height="0.2116" ry="0.1058" fill="currentColor"/></g><g transform="translate(0, 4.673)"><rect x="76.45" y="-0.1058" width="1.954" height="0.2116" ry="0.1058" fill="currentColor"/></g><g transform="translate(0, 5.673)"><rect x="76.45" y="-0.1058" width="1.954" height="0.2116" ry="0.1058" fill="currentColor"/></g><g transform="translate(0, 2.673)"><rect x="73.69" y="-0.1058" width="1.804" height="0.2116" ry="0.1058" fill="currentColor"/></g><g transform="translate(0, 3.673)"><rect x="73.54" y="-0.1058" width="1.954" height="0.2116" ry="0.1058" fill="currentColor"/></g><g transform="translate(0, 4.673)"><rect x="73.54" y="-0.1058" width="1.954" height="0.2116" ry="0.1058" fill="currentColor"/></g><g transform="translate(0, 5.673)"><rect x="73.54" y="-0.1058" width="1.954" height="0.2116" ry="0.1058" fill="currentColor"/></g><g transform="translate(0, 3.673)"><rect x="70.33" y="-0.1058" width="1.804" height="0.2116" ry="0.1058" fill="currentColor"/></g><g transform="translate(0, 4.673)"><rect x="70.18" y="-0.1058" width="1.954" height="0.2116" ry="0.1058" fill="currentColor"/></g><g transform="translate(0, 5.673)"><rect x="70.18" y="-0.1058" width="1.954" height="0.2116" ry="0.1058" fill="currentColor"/></g><g transform="translate(0, 3.673)"><rect x="66.98" y="-0.1058" width="1.804" height="0.2116" ry="0.1058" fill="currentColor"/></g><g transform="translate(0, 4.673)"><rect x="66.83" y="-0.1058" width="1.954" height="0.2116" ry="0.1058" fill="currentColor"/></g><g transform="translate(0, 5.673)"><rect x="66.83" y="-0.1058" width="1.954" height="0.2116" ry="0.1058" fill="currentColor"/></g><g transform="translate(0, 4.673)"><rect x="63.63" y="-0.1058" width="1.804" height="0.2116" ry="0.1058" fill="currentColor"/></g><g transform="translate(0, 5.673)"><rect x="63.48" y="-0.1058" width="1.954" height="0.2116" ry="0.1058" fill="currentColor"/></g><g transform="translate(0, 4.673)"><rect x="60.13" y="-0.1058" width="1.954" height="0.2116" ry="0.1058" fill="currentColor"/></g><g transform="translate(0, 5.673)"><rect x="60.13" y="-0.1058" width="1.954" height="0.2116" ry="0.1058" fill="currentColor"/></g><g transform="translate(0, 4.673)"><rect x="57.22" y="-0.1058" width="1.954" height="0.2116" ry="0.1058" fill="currentColor"/></g><g transform="translate(0, 5.673)"><rect x="57.22" y="-0.1058" width="1.954" height="0.2116" ry="0.1058" fill="currentColor"/></g><g transform="translate(0, 5.673)"><rect x="54.31" y="-0.1058" width="1.954" height="0.2116" ry="0.1058" fill="currentColor"/></g><g transform="translate(0, 5.673)"><rect x="51.4" y="-0.1058" width="1.954" height="0.2116" ry="0.1058" fill="currentColor"/></g><g transform="translate(0, 11.67)"><rect x="7.989" y="-0.1058" width="1.954" height="0.2116" ry="0.1058" fill="currentColor"/></g><g transform="translate(0, 11.67)"><rect x="5.474" y="-0.1058" width="1.954" height="0.2116" ry="0.1058" fill="currentColor"/></g><g transform="translate(51.72, 5.673)"><path transform="scale(0.004, -0.004)" d="M215 137c67 0 111 -37 111 -92c0 -90 -111 -182 -215 -182c-67 0 -111 37 -111 92c0 90 111 182 215 182z" fill="currentColor"/></g><g transform="translate(54.7, 8.673)"><rect x="-0.0725" y="-3.321" width="0.1451" height="3.321" ry="0.0471" fill="currentColor"/></g><g transform="translate(54.15, 16.7)"><text font-family="serif" font-weight="bold" font-size="1.746" text-anchor="start" fill="currentColor"><tspan>12</tspan></text></g><g transform="translate(54.88, 4.125)"><path transform="scale(0.0022, -0.0022)" d="M194 486c16 0 29 15 41 15c13 0 24 -13 24 -31v-341c0 -47 35 -86 81 -86c14 0 21 -10 21 -21s-7 -22 -21 -22c-49 0 -97 14 -146 14s-96 -14 -145 -14c-14 0 -22 11 -22 22s8 21 22 21c46 0 80 39 80 86v137c0 23 -16 35 -30 35c-7 0 -13 -4 -17 -11l-34 -65 c-5 -10 -14 -15 -23 -15c-14 0 -28 12 -28 27c0 4 1 8 3 13l129 250c2 4 7 6 11 6c18 0 37 -20 54 -20z" fill="currentColor"/></g><g transform="translate(54.63, 5.173)"><path transform="scale(0.004, -0.004)" d="M215 137c67 0 111 -37 111 -92c0 -90 -111 -182 -215 -182c-67 0 -111 37 -111 92c0 90 111 182 215 182z" fill="currentColor"/></g><g transform="translate(51.79, 8.673)"><rect x="-0.0725" y="-2.821" width="0.1451" height="3.012" ry="0.0471" fill="currentColor"/></g><g transform="translate(51.24, 18.2)"><text font-family="serif" font-weight="bold" font-size="1.746" text-anchor="start" fill="currentColor"><tspan>14</tspan></text></g><g transform="translate(51.91, 4.625)"><path transform="scale(0.0022, -0.0022)" d="M148 501c10 0 41 -15 72 -15c32 0 63 15 76 15c15 0 26 -11 26 -21c0 -4 -1 -7 -4 -10l-264 -291h134v4c0 60 50 41 75 85c7 11 8 24 14 36c3 7 10 10 17 10c11 0 24 -8 24 -25v-110h70c18 0 27 -14 27 -27s-9 -27 -27 -27h-70c2 -45 36 -82 80 -82c14 0 22 -10 22 -21 s-8 -22 -22 -22c-49 0 -96 14 -145 14s-97 -14 -146 -14c-14 0 -21 11 -21 22s7 21 21 21c44 0 79 37 81 82h-134c-43 0 -57 25 -57 42c0 5 1 10 3 12c73 81 123 182 123 291c0 17 11 31 25 31z" fill="currentColor"/></g><g transform="translate(60.52, 8.673)"><rect x="-0.0725" y="-4.321" width="0.1451" height="4.321" ry="0.0471" fill="currentColor"/></g><g transform="translate(59.97, 16.69)"><text font-family="serif" font-weight="bold" font-size="1.746" text-anchor="start" fill="currentColor"><tspan>15</tspan></text></g><g transform="translate(60.72, 3.125)"><path transform="scale(0.0022, -0.0022)" d="M261 266c0 -54 85 -40 85 -125c0 -94 -83 -141 -186 -141c-84 0 -160 54 -160 133c0 32 26 58 58 58s58 -26 58 -58c0 -22 -36 -26 -36 -48c0 -33 42 -42 80 -42c41 0 56 50 56 98v21c0 44 -2 77 -43 77h-65c-18 0 -27 14 -27 27s9 27 27 27h65c42 0 43 36 43 83v11 c0 43 -20 70 -61 70c-34 0 -71 -8 -71 -38c0 -19 32 -23 32 -42c0 -28 -23 -51 -51 -51s-51 23 -51 51c0 72 66 123 141 123c93 0 174 -31 174 -113c0 -94 -68 -67 -68 -121z" fill="currentColor"/></g><g transform="translate(60.45, 4.173)"><path transform="scale(0.004, -0.004)" d="M215 137c67 0 111 -37 111 -92c0 -90 -111 -182 -215 -182c-67 0 -111 37 -111 92c0 90 111 182 215 182z" fill="currentColor"/></g><g transform="translate(57.61, 8.673)"><rect x="-0.0725" y="-3.821" width="0.1451" height="3.821" ry="0.0471" fill="currentColor"/></g><g transform="translate(57.06, 16.69)"><text font-family="serif" font-weight="bold" font-size="1.746" text-anchor="start" fill="currentColor"><tspan>13</tspan></text></g><g transform="translate(57.79, 3.625)"><path transform="scale(0.0022, -0.0022)" d="M194 486c16 0 29 15 41 15c13 0 24 -13 24 -31v-341c0 -47 35 -86 81 -86c14 0 21 -10 21 -21s-7 -22 -21 -22c-49 0 -97 14 -146 14s-96 -14 -145 -14c-14 0 -22 11 -22 22s8 21 22 21c46 0 80 39 80 86v137c0 23 -16 35 -30 35c-7 0 -13 -4 -17 -11l-34 -65 c-5 -10 -14 -15 -23 -15c-14 0 -28 12 -28 27c0 4 1 8 3 13l129 250c2 4 7 6 11 6c18 0 37 -20 54 -20z" fill="currentColor"/></g><g transform="translate(57.54, 4.673)"><path transform="scale(0.004, -0.004)" d="M215 137c67 0 111 -37 111 -92c0 -90 -111 -182 -215 -182c-67 0 -111 37 -111 92c0 90 111 182 215 182z" fill="currentColor"/></g><g transform="translate(45.53, 8.673)"><rect x="-0.0725" y="-1.821" width="0.1451" height="2.654" ry="0.0471" fill="currentColor"/></g><g transform="translate(44.98, 18.2)"><text font-family="serif" font-weight="bold" font-size="1.746" text-anchor="start" fill="currentColor"><tspan>11</tspan></text></g><g transform="translate(45.71, 5.625)"><path transform="scale(0.0022, -0.0022)" d="M194 486c16 0 29 15 41 15c13 0 24 -13 24 -31v-341c0 -47 35 -86 81 -86c14 0 21 -10 21 -21s-7 -22 -21 -22c-49 0 -97 14 -146 14s-96 -14 -145 -14c-14 0 -22 11 -22 22s8 21 22 21c46 0 80 39 80 86v137c0 23 -16 35 -30 35c-7 0 -13 -4 -17 -11l-34 -65 c-5 -10 -14 -15 -23 -15c-14 0 -28 12 -28 27c0 4 1 8 3 13l129 250c2 4 7 6 11 6c18 0 37 -20 54 -20z" fill="currentColor"/></g><g transform="translate(45.46, 6.673)"><path transform="scale(0.004, -0.004)" d="M215 137c67 0 111 -37 111 -92c0 -90 -111 -182 -215 -182c-67 0 -111 37 -111 92c0 90 111 182 215 182z" fill="currentColor"/></g><g transform="translate(40.66, 7.173)"><path transform="scale(0.004, -0.004)" d="M0 117c0 9 6 18 15 21l43 16v157c0 11 8 19 19 19s20 -8 20 -19v-142l81 30v156c0 11 9 20 20 20s19 -9 19 -20v-142l28 11c3 1 5 1 8 1c12 0 22 -10 22 -23v-57c0 -9 -6 -18 -15 -21l-43 -16v-157l28 10c3 1 5 1 8 1c12 0 22 -9 22 -22v-57c0 -9 -6 -18 -15 -21l-43 -16 v-157c0 -11 -8 -19 -19 -19s-20 8 -20 19v142l-81 -30v-156c0 -11 -9 -20 -20 -20s-19 9 -19 20v142l-28 -11c-3 -1 -5 -1 -8 -1c-12 0 -22 10 -22 23v57c0 9 6 18 15 21l43 16v157l-28 -10c-3 -1 -5 -1 -8 -1c-12 0 -22 9 -22 22v57zM178 94l-81 -30v-158l81 30v158z" fill="currentColor"/></g><g transform="translate(42.18, 8.673)"><rect x="-0.0725" y="-1.321" width="0.1451" height="2.497" ry="0.0471" fill="currentColor"/></g><g transform="translate(41.62, 18.19)"><text font-family="serif" font-weight="bold" font-size="1.746" text-anchor="start" fill="currentColor"><tspan>10</tspan></text></g><g transform="translate(42.35, 6.118)"><path transform="scale(0.0022, -0.0022)" d="M194 486c16 0 29 15 41 15c13 0 24 -13 24 -31v-341c0 -47 35 -86 81 -86c14 0 21 -10 21 -21s-7 -22 -21 -22c-49 0 -97 14 -146 14s-96 -14 -145 -14c-14 0 -22 11 -22 22s8 21 22 21c46 0 80 39 80 86v137c0 23 -16 35 -30 35c-7 0 -13 -4 -17 -11l-34 -65 c-5 -10 -14 -15 -23 -15c-14 0 -28 12 -28 27c0 4 1 8 3 13l129 250c2 4 7 6 11 6c18 0 37 -20 54 -20z" fill="currentColor"/></g><g transform="translate(42.11, 7.173)"><path transform="scale(0.004, -0.004)" d="M215 137c67 0 111 -37 111 -92c0 -90 -111 -182 -215 -182c-67 0 -111 37 -111 92c0 90 111 182 215 182z" fill="currentColor"/></g><g transform="translate(67.16, 8.673)"><polygon stroke-linejoin="round" stroke-linecap="round" stroke-width="0.0941" fill="currentColor" stroke="currentColor" points="6.804 -0.1929 6.804 0.1929 0.0471 0.1929 0.0471 -0.1929"/></g><g transform="translate(48.88, 8.673)"><rect x="-0.0725" y="-2.321" width="0.1451" height="2.81" ry="0.0471" fill="currentColor"/></g><g transform="translate(47.36, 6.173)"><path transform="scale(0.004, -0.004)" d="M0 117c0 9 6 18 15 21l43 16v157c0 11 8 19 19 19s20 -8 20 -19v-142l81 30v156c0 11 9 20 20 20s19 -9 19 -20v-142l28 11c3 1 5 1 8 1c12 0 22 -10 22 -23v-57c0 -9 -6 -18 -15 -21l-43 -16v-157l28 10c3 1 5 1 8 1c12 0 22 -9 22 -22v-57c0 -9 -6 -18 -15 -21l-43 -16 v-157c0 -11 -8 -19 -19 -19s-20 8 -20 19v142l-81 -30v-156c0 -11 -9 -20 -20 -20s-19 9 -19 20v142l-28 -11c-3 -1 -5 -1 -8 -1c-12 0 -22 10 -22 23v57c0 9 6 18 15 21l43 16v157l-28 -10c-3 -1 -5 -1 -8 -1c-12 0 -22 9 -22 22v57zM178 94l-81 -30v-158l81 30v158z" fill="currentColor"/></g><g transform="translate(48.33, 18.19)"><text font-family="serif" font-weight="bold" font-size="1.746" text-anchor="start" fill="currentColor"><tspan>13</tspan></text></g><g transform="translate(49.08, 5.125)"><path transform="scale(0.0022, -0.0022)" d="M261 266c0 -54 85 -40 85 -125c0 -94 -83 -141 -186 -141c-84 0 -160 54 -160 133c0 32 26 58 58 58s58 -26 58 -58c0 -22 -36 -26 -36 -48c0 -33 42 -42 80 -42c41 0 56 50 56 98v21c0 44 -2 77 -43 77h-65c-18 0 -27 14 -27 27s9 27 27 27h65c42 0 43 36 43 83v11 c0 43 -20 70 -61 70c-34 0 -71 -8 -71 -38c0 -19 32 -23 32 -42c0 -28 -23 -51 -51 -51s-51 23 -51 51c0 72 66 123 141 123c93 0 174 -31 174 -113c0 -94 -68 -67 -68 -121z" fill="currentColor"/></g><g transform="translate(48.81, 6.173)"><path transform="scale(0.004, -0.004)" d="M215 137c67 0 111 -37 111 -92c0 -90 -111 -182 -215 -182c-67 0 -111 37 -111 92c0 90 111 182 215 182z" fill="currentColor"/></g><g transform="translate(44.01, 6.673)"><path transform="scale(0.004, -0.004)" d="M0 117c0 9 6 18 15 21l43 16v157c0 11 8 19 19 19s20 -8 20 -19v-142l81 30v156c0 11 9 20 20 20s19 -9 19 -20v-142l28 11c3 1 5 1 8 1c12 0 22 -10 22 -23v-57c0 -9 -6 -18 -15 -21l-43 -16v-157l28 10c3 1 5 1 8 1c12 0 22 -9 22 -22v-57c0 -9 -6 -18 -15 -21l-43 -16 v-157c0 -11 -8 -19 -19 -19s-20 8 -20 19v142l-81 -30v-156c0 -11 -9 -20 -20 -20s-19 9 -19 20v142l-28 -11c-3 -1 -5 -1 -8 -1c-12 0 -22 10 -22 23v57c0 9 6 18 15 21l43 16v157l-28 -10c-3 -1 -5 -1 -8 -1c-12 0 -22 9 -22 22v57zM178 94l-81 -30v-158l81 30v158z" fill="currentColor"/></g><g transform="translate(76.29, 15.2)"><text font-family="serif" font-weight="bold" font-size="1.746" text-anchor="start" fill="currentColor"><tspan>17</tspan></text></g><g transform="translate(76.96, 1.125)"><path transform="scale(0.0022, -0.0022)" d="M148 501c10 0 41 -15 72 -15c32 0 63 15 76 15c15 0 26 -11 26 -21c0 -4 -1 -7 -4 -10l-264 -291h134v4c0 60 50 41 75 85c7 11 8 24 14 36c3 7 10 10 17 10c11 0 24 -8 24 -25v-110h70c18 0 27 -14 27 -27s-9 -27 -27 -27h-70c2 -45 36 -82 80 -82c14 0 22 -10 22 -21 s-8 -22 -22 -22c-49 0 -96 14 -145 14s-97 -14 -146 -14c-14 0 -21 11 -21 22s7 21 21 21c44 0 79 37 81 82h-134c-43 0 -57 25 -57 42c0 5 1 10 3 12c73 81 123 182 123 291c0 17 11 31 25 31z" fill="currentColor"/></g><g transform="translate(76.77, 2.173)"><path transform="scale(0.004, -0.004)" d="M215 137c67 0 111 -37 111 -92c0 -90 -111 -182 -215 -182c-67 0 -111 37 -111 92c0 90 111 182 215 182z" fill="currentColor"/></g><g transform="translate(72.41, 2.673)"><path transform="scale(0.004, -0.004)" d="M0 117c0 9 6 18 15 21l43 16v157c0 11 8 19 19 19s20 -8 20 -19v-142l81 30v156c0 11 9 20 20 20s19 -9 19 -20v-142l28 11c3 1 5 1 8 1c12 0 22 -10 22 -23v-57c0 -9 -6 -18 -15 -21l-43 -16v-157l28 10c3 1 5 1 8 1c12 0 22 -9 22 -22v-57c0 -9 -6 -18 -15 -21l-43 -16 v-157c0 -11 -8 -19 -19 -19s-20 8 -20 19v142l-81 -30v-156c0 -11 -9 -20 -20 -20s-19 9 -19 20v142l-28 -11c-3 -1 -5 -1 -8 -1c-12 0 -22 10 -22 23v57c0 9 6 18 15 21l43 16v157l-28 -10c-3 -1 -5 -1 -8 -1c-12 0 -22 9 -22 22v57zM178 94l-81 -30v-158l81 30v158z" fill="currentColor"/></g><g transform="translate(76.85, 8.673)"><rect x="-0.0725" y="-6.321" width="0.1451" height="6.321" ry="0.0471" fill="currentColor"/></g><g transform="translate(73.94, 8.673)"><rect x="-0.0725" y="-5.821" width="0.1451" height="5.821" ry="0.0471" fill="currentColor"/></g><g transform="translate(73.38, 15.19)"><text font-family="serif" font-weight="bold" font-size="1.746" text-anchor="start" fill="currentColor"><tspan>16</tspan></text></g><g transform="translate(74.13, 1.625)"><path transform="scale(0.0022, -0.0022)" d="M261 266c0 -54 85 -40 85 -125c0 -94 -83 -141 -186 -141c-84 0 -160 54 -160 133c0 32 26 58 58 58s58 -26 58 -58c0 -22 -36 -26 -36 -48c0 -33 42 -42 80 -42c41 0 56 50 56 98v21c0 44 -2 77 -43 77h-65c-18 0 -27 14 -27 27s9 27 27 27h65c42 0 43 36 43 83v11 c0 43 -20 70 -61 70c-34 0 -71 -8 -71 -38c0 -19 32 -23 32 -42c0 -28 -23 -51 -51 -51s-51 23 -51 51c0 72 66 123 141 123c93 0 174 -31 174 -113c0 -94 -68 -67 -68 -121z" fill="currentColor"/></g><g transform="translate(73.86, 2.673)"><path transform="scale(0.004, -0.004)" d="M215 137c67 0 111 -37 111 -92c0 -90 -111 -182 -215 -182c-67 0 -111 37 -111 92c0 90 111 182 215 182z" fill="currentColor"/></g><g transform="translate(54.63, 8.673)"><polygon stroke-linejoin="round" stroke-linecap="round" stroke-width="0.0941" fill="currentColor" stroke="currentColor" points="9.271 -0.1929 9.271 0.1929 0.0471 0.1929 0.0471 -0.1929"/></g><g transform="translate(42.11, 9.858)"><polygon stroke-linejoin="round" stroke-linecap="round" stroke-width="0.0941" fill="currentColor" stroke="currentColor" points="9.714 -1.193 9.714 -0.8071 0.0471 0.1929 0.0471 -0.1929"/></g><g transform="translate(29.98, 11.49)"><polygon stroke-linejoin="round" stroke-linecap="round" stroke-width="0.0941" fill="currentColor" stroke="currentColor" points="8.875 -0.8245 8.875 -0.4387 0.0471 0.1929 0.0471 -0.1929"/></g><g transform="translate(18.69, 7.489)"><polygon stroke-linejoin="round" stroke-linecap="round" stroke-width="0.0941" fill="currentColor" stroke="currentColor" points="9.714 -1.193 9.714 -0.8071 0.0471 0.1929 0.0471 -0.1929"/></g><g transform="translate(6.958, 8.858)"><polygon stroke-linejoin="round" stroke-linecap="round" stroke-width="0.0941" fill="currentColor" stroke="currentColor" points="8.479 -0.5613 8.479 -0.1755 0.0471 0.1929 0.0471 -0.1929"/></g><g transform="translate(67.16, 3.673)"><path transform="scale(0.004, -0.004)" d="M215 137c67 0 111 -37 111 -92c0 -90 -111 -182 -215 -182c-67 0 -111 37 -111 92c0 90 111 182 215 182z" fill="currentColor"/></g><g transform="translate(62.35, 4.173)"><path transform="scale(0.004, -0.004)" d="M0 117c0 9 6 18 15 21l43 16v157c0 11 8 19 19 19s20 -8 20 -19v-142l81 30v156c0 11 9 20 20 20s19 -9 19 -20v-142l28 11c3 1 5 1 8 1c12 0 22 -10 22 -23v-57c0 -9 -6 -18 -15 -21l-43 -16v-157l28 10c3 1 5 1 8 1c12 0 22 -9 22 -22v-57c0 -9 -6 -18 -15 -21l-43 -16 v-157c0 -11 -8 -19 -19 -19s-20 8 -20 19v142l-81 -30v-156c0 -11 -9 -20 -20 -20s-19 9 -19 20v142l-28 -11c-3 -1 -5 -1 -8 -1c-12 0 -22 10 -22 23v57c0 9 6 18 15 21l43 16v157l-28 -10c-3 -1 -5 -1 -8 -1c-12 0 -22 9 -22 22v57zM178 94l-81 -30v-158l81 30v158z" fill="currentColor"/></g><g transform="translate(67.41, 2.625)"><path transform="scale(0.0022, -0.0022)" d="M194 486c16 0 29 15 41 15c13 0 24 -13 24 -31v-341c0 -47 35 -86 81 -86c14 0 21 -10 21 -21s-7 -22 -21 -22c-49 0 -97 14 -146 14s-96 -14 -145 -14c-14 0 -22 11 -22 22s8 21 22 21c46 0 80 39 80 86v137c0 23 -16 35 -30 35c-7 0 -13 -4 -17 -11l-34 -65 c-5 -10 -14 -15 -23 -15c-14 0 -28 12 -28 27c0 4 1 8 3 13l129 250c2 4 7 6 11 6c18 0 37 -20 54 -20z" fill="currentColor"/></g><g transform="translate(63.88, 8.673)"><rect x="-0.0725" y="-4.321" width="0.1451" height="4.321" ry="0.0471" fill="currentColor"/></g><g transform="translate(63.32, 16.69)"><text font-family="serif" font-weight="bold" font-size="1.746" text-anchor="start" fill="currentColor"><tspan>16</tspan></text></g><g transform="translate(63.99, 3.125)"><path transform="scale(0.0022, -0.0022)" d="M148 501c10 0 41 -15 72 -15c32 0 63 15 76 15c15 0 26 -11 26 -21c0 -4 -1 -7 -4 -10l-264 -291h134v4c0 60 50 41 75 85c7 11 8 24 14 36c3 7 10 10 17 10c11 0 24 -8 24 -25v-110h70c18 0 27 -14 27 -27s-9 -27 -27 -27h-70c2 -45 36 -82 80 -82c14 0 22 -10 22 -21 s-8 -22 -22 -22c-49 0 -96 14 -145 14s-97 -14 -146 -14c-14 0 -21 11 -21 22s7 21 21 21c44 0 79 37 81 82h-134c-43 0 -57 25 -57 42c0 5 1 10 3 12c73 81 123 182 123 291c0 17 11 31 25 31z" fill="currentColor"/></g><g transform="translate(63.8, 4.173)"><path transform="scale(0.004, -0.004)" d="M215 137c67 0 111 -37 111 -92c0 -90 -111 -182 -215 -182c-67 0 -111 37 -111 92c0 90 111 182 215 182z" fill="currentColor"/></g><g transform="translate(69.06, 3.173)"><path transform="scale(0.004, -0.004)" d="M0 117c0 9 6 18 15 21l43 16v157c0 11 8 19 19 19s20 -8 20 -19v-142l81 30v156c0 11 9 20 20 20s19 -9 19 -20v-142l28 11c3 1 5 1 8 1c12 0 22 -10 22 -23v-57c0 -9 -6 -18 -15 -21l-43 -16v-157l28 10c3 1 5 1 8 1c12 0 22 -9 22 -22v-57c0 -9 -6 -18 -15 -21l-43 -16 v-157c0 -11 -8 -19 -19 -19s-20 8 -20 19v142l-81 -30v-156c0 -11 -9 -20 -20 -20s-19 9 -19 20v142l-28 -11c-3 -1 -5 -1 -8 -1c-12 0 -22 10 -22 23v57c0 9 6 18 15 21l43 16v157l-28 -10c-3 -1 -5 -1 -8 -1c-12 0 -22 9 -22 22v57zM178 94l-81 -30v-158l81 30v158z" fill="currentColor"/></g><g transform="translate(70.58, 8.673)"><rect x="-0.0725" y="-5.321" width="0.1451" height="5.321" ry="0.0471" fill="currentColor"/></g><g transform="translate(70.03, 15.2)"><text font-family="serif" font-weight="bold" font-size="1.746" text-anchor="start" fill="currentColor"><tspan>14</tspan></text></g><g transform="translate(70.76, 2.125)"><path transform="scale(0.0022, -0.0022)" d="M194 486c16 0 29 15 41 15c13 0 24 -13 24 -31v-341c0 -47 35 -86 81 -86c14 0 21 -10 21 -21s-7 -22 -21 -22c-49 0 -97 14 -146 14s-96 -14 -145 -14c-14 0 -22 11 -22 22s8 21 22 21c46 0 80 39 80 86v137c0 23 -16 35 -30 35c-7 0 -13 -4 -17 -11l-34 -65 c-5 -10 -14 -15 -23 -15c-14 0 -28 12 -28 27c0 4 1 8 3 13l129 250c2 4 7 6 11 6c18 0 37 -20 54 -20z" fill="currentColor"/></g><g transform="translate(70.51, 3.173)"><path transform="scale(0.004, -0.004)" d="M215 137c67 0 111 -37 111 -92c0 -90 -111 -182 -215 -182c-67 0 -111 37 -111 92c0 90 111 182 215 182z" fill="currentColor"/></g><g transform="translate(65.71, 3.673)"><path transform="scale(0.004, -0.004)" d="M0 117c0 9 6 18 15 21l43 16v157c0 11 8 19 19 19s20 -8 20 -19v-142l81 30v156c0 11 9 20 20 20s19 -9 19 -20v-142l28 11c3 1 5 1 8 1c12 0 22 -10 22 -23v-57c0 -9 -6 -18 -15 -21l-43 -16v-157l28 10c3 1 5 1 8 1c12 0 22 -9 22 -22v-57c0 -9 -6 -18 -15 -21l-43 -16 v-157c0 -11 -8 -19 -19 -19s-20 8 -20 19v142l-81 -30v-156c0 -11 -9 -20 -20 -20s-19 9 -19 20v142l-28 -11c-3 -1 -5 -1 -8 -1c-12 0 -22 10 -22 23v57c0 9 6 18 15 21l43 16v157l-28 -10c-3 -1 -5 -1 -8 -1c-12 0 -22 9 -22 22v57zM178 94l-81 -30v-158l81 30v158z" fill="currentColor"/></g><g transform="translate(67.23, 8.673)"><rect x="-0.0725" y="-4.821" width="0.1451" height="4.821" ry="0.0471" fill="currentColor"/></g><g transform="translate(66.67, 15.19)"><text font-family="serif" font-weight="bold" font-size="1.746" text-anchor="start" fill="currentColor"><tspan>13</tspan></text></g><g transform="translate(18.76, 8.673)"><rect x="-0.0725" y="-1.192" width="0.1451" height="3.012" ry="0.0471" fill="currentColor"/></g><g transform="translate(17.65, 21.19)"><text font-family="serif" font-weight="bold" font-size="1.746" text-anchor="start" fill="currentColor"><tspan>8</tspan></text></g><g transform="translate(17.78, 6.118)"><path transform="scale(0.0022, -0.0022)" d="M194 486c16 0 29 15 41 15c13 0 24 -13 24 -31v-341c0 -47 35 -86 81 -86c14 0 21 -10 21 -21s-7 -22 -21 -22c-49 0 -97 14 -146 14s-96 -14 -145 -14c-14 0 -22 11 -22 22s8 21 22 21c46 0 80 39 80 86v137c0 23 -16 35 -30 35c-7 0 -13 -4 -17 -11l-34 -65 c-5 -10 -14 -15 -23 -15c-14 0 -28 12 -28 27c0 4 1 8 3 13l129 250c2 4 7 6 11 6c18 0 37 -20 54 -20z" fill="currentColor"/></g><g transform="translate(17.53, 10.67)"><path transform="scale(0.004, -0.004)" d="M215 137c67 0 111 -37 111 -92c0 -90 -111 -182 -215 -182c-67 0 -111 37 -111 92c0 90 111 182 215 182z" fill="currentColor"/></g><g transform="translate(12.73, 11.17)"><path transform="scale(0.004, -0.004)" d="M0 117c0 9 6 18 15 21l43 16v157c0 11 8 19 19 19s20 -8 20 -19v-142l81 30v156c0 11 9 20 20 20s19 -9 19 -20v-142l28 11c3 1 5 1 8 1c12 0 22 -10 22 -23v-57c0 -9 -6 -18 -15 -21l-43 -16v-157l28 10c3 1 5 1 8 1c12 0 22 -9 22 -22v-57c0 -9 -6 -18 -15 -21l-43 -16 v-157c0 -11 -8 -19 -19 -19s-20 8 -20 19v142l-81 -30v-156c0 -11 -9 -20 -20 -20s-19 9 -19 20v142l-28 -11c-3 -1 -5 -1 -8 -1c-12 0 -22 10 -22 23v57c0 9 6 18 15 21l43 16v157l-28 -10c-3 -1 -5 -1 -8 -1c-12 0 -22 9 -22 22v57zM178 94l-81 -30v-158l81 30v158z" fill="currentColor"/></g><g transform="translate(15.41, 8.673)"><rect x="-0.0725" y="-0.1811" width="0.1451" height="2.502" ry="0.0471" fill="currentColor"/></g><g transform="translate(13.7, 22.7)"><text font-family="serif" font-weight="bold" font-size="1.746" text-anchor="start" fill="currentColor"><tspan>11</tspan></text></g><g transform="translate(14.37, 6.118)"><path transform="scale(0.0022, -0.0022)" d="M148 501c10 0 41 -15 72 -15c32 0 63 15 76 15c15 0 26 -11 26 -21c0 -4 -1 -7 -4 -10l-264 -291h134v4c0 60 50 41 75 85c7 11 8 24 14 36c3 7 10 10 17 10c11 0 24 -8 24 -25v-110h70c18 0 27 -14 27 -27s-9 -27 -27 -27h-70c2 -45 36 -82 80 -82c14 0 22 -10 22 -21 s-8 -22 -22 -22c-49 0 -96 14 -145 14s-97 -14 -146 -14c-14 0 -21 11 -21 22s7 21 21 21c44 0 79 37 81 82h-134c-43 0 -57 25 -57 42c0 5 1 10 3 12c73 81 123 182 123 291c0 17 11 31 25 31z" fill="currentColor"/></g><g transform="translate(14.18, 11.17)"><path transform="scale(0.004, -0.004)" d="M215 137c67 0 111 -37 111 -92c0 -90 -111 -182 -215 -182c-67 0 -111 37 -111 92c0 90 111 182 215 182z" fill="currentColor"/></g><g transform="translate(21.14, 6.118)"><path transform="scale(0.0022, -0.0022)" d="M194 486c16 0 29 15 41 15c13 0 24 -13 24 -31v-341c0 -47 35 -86 81 -86c14 0 21 -10 21 -21s-7 -22 -21 -22c-49 0 -97 14 -146 14s-96 -14 -145 -14c-14 0 -22 11 -22 22s8 21 22 21c46 0 80 39 80 86v137c0 23 -16 35 -30 35c-7 0 -13 -4 -17 -11l-34 -65 c-5 -10 -14 -15 -23 -15c-14 0 -28 12 -28 27c0 4 1 8 3 13l129 250c2 4 7 6 11 6c18 0 37 -20 54 -20z" fill="currentColor"/></g><g transform="translate(19.44, 10.17)"><path transform="scale(0.004, -0.004)" d="M0 117c0 9 6 18 15 21l43 16v157c0 11 8 19 19 19s20 -8 20 -19v-142l81 30v156c0 11 9 20 20 20s19 -9 19 -20v-142l28 11c3 1 5 1 8 1c12 0 22 -10 22 -23v-57c0 -9 -6 -18 -15 -21l-43 -16v-157l28 10c3 1 5 1 8 1c12 0 22 -9 22 -22v-57c0 -9 -6 -18 -15 -21l-43 -16 v-157c0 -11 -8 -19 -19 -19s-20 8 -20 19v142l-81 -30v-156c0 -11 -9 -20 -20 -20s-19 9 -19 20v142l-28 -11c-3 -1 -5 -1 -8 -1c-12 0 -22 10 -22 23v57c0 9 6 18 15 21l43 16v157l-28 -10c-3 -1 -5 -1 -8 -1c-12 0 -22 9 -22 22v57zM178 94l-81 -30v-158l81 30v158z" fill="currentColor"/></g><g transform="translate(22.12, 8.673)"><rect x="-0.0725" y="-1.535" width="0.1451" height="2.856" ry="0.0471" fill="currentColor"/></g><g transform="translate(21.01, 21.19)"><text font-family="serif" font-weight="bold" font-size="1.746" text-anchor="start" fill="currentColor"><tspan>9</tspan></text></g><g transform="translate(20.89, 10.17)"><path transform="scale(0.004, -0.004)" d="M215 137c67 0 111 -37 111 -92c0 -90 -111 -182 -215 -182c-67 0 -111 37 -111 92c0 90 111 182 215 182z" fill="currentColor"/></g><g transform="translate(16.08, 10.67)"><path transform="scale(0.004, -0.004)" d="M0 117c0 9 6 18 15 21l43 16v157c0 11 8 19 19 19s20 -8 20 -19v-142l81 30v156c0 11 9 20 20 20s19 -9 19 -20v-142l28 11c3 1 5 1 8 1c12 0 22 -10 22 -23v-57c0 -9 -6 -18 -15 -21l-43 -16v-157l28 10c3 1 5 1 8 1c12 0 22 -9 22 -22v-57c0 -9 -6 -18 -15 -21l-43 -16 v-157c0 -11 -8 -19 -19 -19s-20 8 -20 19v142l-81 -30v-156c0 -11 -9 -20 -20 -20s-19 9 -19 20v142l-28 -11c-3 -1 -5 -1 -8 -1c-12 0 -22 10 -22 23v57c0 9 6 18 15 21l43 16v157l-28 -10c-3 -1 -5 -1 -8 -1c-12 0 -22 9 -22 22v57zM178 94l-81 -30v-158l81 30v158z" fill="currentColor"/></g><g transform="translate(7.03, 8.673)"><rect x="-0.0725" y="0.1811" width="0.1451" height="3.14" ry="0.0471" fill="currentColor"/></g><g transform="translate(0.9205, 16.85)"><text font-family="sans-serif" font-weight="bold" font-size="2.772" text-anchor="start" fill="currentColor"><tspan>T</tspan></text></g><g transform="translate(0.8, 19.31)"><text font-family="sans-serif" font-weight="bold" font-size="2.772" text-anchor="start" fill="currentColor"><tspan>A</tspan></text></g><g transform="translate(0.8, 21.78)"><text font-family="sans-serif" font-weight="bold" font-size="2.772" text-anchor="start" fill="currentColor"><tspan>B</tspan></text></g><g transform="translate(5.92, 22.69)"><text font-family="serif" font-weight="bold" font-size="1.746" text-anchor="start" fill="currentColor"><tspan>7</tspan></text></g><g transform="translate(1.384, 13.48)"><text font-family="serif" font-style="italic" font-size="1.386" text-anchor="start" fill="currentColor"><tspan>8</tspan></text></g><g transform="translate(0.8, 9.673)"><path transform="scale(0.004, -0.004)" d="M646 2c0 -113 -74 -213 -180 -247c3 -34 5 -68 5 -102c0 -20 -1 -40 -2 -60c-7 -121 -91 -228 -209 -228c-108 0 -196 87 -196 196c0 58 53 104 112 104c54 0 95 -48 95 -104c0 -52 -43 -95 -95 -95c-10 0 -20 2 -29 6c26 -38 68 -63 116 -63h3c93 2 153 92 159 190 c1 19 2 37 2 56c0 30 -2 60 -4 90c-5 -1 -43 -8 -88 -8c-194 0 -333 180 -333 375c0 177 130 307 246 442c-31 98 -53 170 -53 347c0 115 55 223 148 290c7 5 16 4 22 -1c68 -80 134 -243 134 -357c0 -143 -85 -255 -178 -364c21 -68 40 -137 57 -206c1 0 5 1 11 1 c156 0 257 -129 257 -262zM462 -202c66 24 111 88 111 162c0 89 -65 178 -170 190c28 -135 50 -272 59 -352zM75 26c0 -145 141 -245 263 -245c1 0 46 0 81 6c-7 65 -27 206 -61 363c-79 -8 -124 -61 -124 -119c0 -43 25 -89 80 -121c5 -5 7 -11 7 -16 c0 -12 -10 -23 -22 -23c-16 0 -127 63 -127 188c0 89 58 175 161 198c-14 58 -29 116 -46 173c-106 -122 -212 -244 -212 -404zM406 1042c-99 -47 -162 -148 -162 -257c0 -49 13 -111 38 -191c79 97 144 199 144 324c0 33 0 63 -20 124z" fill="currentColor"/></g><g transform="translate(6.05, 6.118)"><path transform="scale(0.0022, -0.0022)" d="M194 486c16 0 29 15 41 15c13 0 24 -13 24 -31v-341c0 -47 35 -86 81 -86c14 0 21 -10 21 -21s-7 -22 -21 -22c-49 0 -97 14 -146 14s-96 -14 -145 -14c-14 0 -22 11 -22 22s8 21 22 21c46 0 80 39 80 86v137c0 23 -16 35 -30 35c-7 0 -13 -4 -17 -11l-34 -65 c-5 -10 -14 -15 -23 -15c-14 0 -28 12 -28 27c0 4 1 8 3 13l129 250c2 4 7 6 11 6c18 0 37 -20 54 -20z" fill="currentColor"/></g><g transform="translate(5.8, 12.17)"><path transform="scale(0.004, -0.004)" d="M215 137c67 0 111 -37 111 -92c0 -90 -111 -182 -215 -182c-67 0 -111 37 -111 92c0 90 111 182 215 182z" fill="currentColor"/></g><g transform="translate(-0.0786, 14.36)"><rect x="0" y="-7.745" width="0.1786" height="15.49" ry="0.0558" fill="currentColor"/></g><g transform="translate(12.06, 8.673)"><rect x="-0.0725" y="-0.0362" width="0.1451" height="2.357" ry="0.0471" fill="currentColor"/></g><g transform="translate(10.35, 22.69)"><text font-family="serif" font-weight="bold" font-size="1.746" text-anchor="start" fill="currentColor"><tspan>10</tspan></text></g><g transform="translate(11.1, 6.118)"><path transform="scale(0.0022, -0.0022)" d="M261 266c0 -54 85 -40 85 -125c0 -94 -83 -141 -186 -141c-84 0 -160 54 -160 133c0 32 26 58 58 58s58 -26 58 -58c0 -22 -36 -26 -36 -48c0 -33 42 -42 80 -42c41 0 56 50 56 98v21c0 44 -2 77 -43 77h-65c-18 0 -27 14 -27 27s9 27 27 27h65c42 0 43 36 43 83v11 c0 43 -20 70 -61 70c-34 0 -71 -8 -71 -38c0 -19 32 -23 32 -42c0 -28 -23 -51 -51 -51s-51 23 -51 51c0 72 66 123 141 123c93 0 174 -31 174 -113c0 -94 -68 -67 -68 -121z" fill="currentColor"/></g><g transform="translate(10.83, 11.17)"><path transform="scale(0.004, -0.004)" d="M215 137c67 0 111 -37 111 -92c0 -90 -111 -182 -215 -182c-67 0 -111 37 -111 92c0 90 111 182 215 182z" fill="currentColor"/></g><g transform="translate(9.544, 8.673)"><rect x="-0.0725" y="0.0724" width="0.1451" height="2.748" ry="0.0471" fill="currentColor"/></g><g transform="translate(8.435, 22.69)"><text font-family="serif" font-weight="bold" font-size="1.746" text-anchor="start" fill="currentColor"><tspan>8</tspan></text></g><g transform="translate(8.564, 6.118)"><path transform="scale(0.0022, -0.0022)" d="M194 486c16 0 29 15 41 15c13 0 24 -13 24 -31v-341c0 -47 35 -86 81 -86c14 0 21 -10 21 -21s-7 -22 -21 -22c-49 0 -97 14 -146 14s-96 -14 -145 -14c-14 0 -22 11 -22 22s8 21 22 21c46 0 80 39 80 86v137c0 23 -16 35 -30 35c-7 0 -13 -4 -17 -11l-34 -65 c-5 -10 -14 -15 -23 -15c-14 0 -28 12 -28 27c0 4 1 8 3 13l129 250c2 4 7 6 11 6c18 0 37 -20 54 -20z" fill="currentColor"/></g><g transform="translate(8.314, 11.67)"><path transform="scale(0.004, -0.004)" d="M215 137c67 0 111 -37 111 -92c0 -90 -111 -182 -215 -182c-67 0 -111 37 -111 92c0 90 111 182 215 182z" fill="currentColor"/></g><g transform="translate(34.92, 19.7)"><text font-family="serif" font-weight="bold" font-size="1.746" text-anchor="start" fill="currentColor"><tspan>12</tspan></text></g><g transform="translate(35.67, 6.118)"><path transform="scale(0.0022, -0.0022)" d="M261 266c0 -54 85 -40 85 -125c0 -94 -83 -141 -186 -141c-84 0 -160 54 -160 133c0 32 26 58 58 58s58 -26 58 -58c0 -22 -36 -26 -36 -48c0 -33 42 -42 80 -42c41 0 56 50 56 98v21c0 44 -2 77 -43 77h-65c-18 0 -27 14 -27 27s9 27 27 27h65c42 0 43 36 43 83v11 c0 43 -20 70 -61 70c-34 0 -71 -8 -71 -38c0 -19 32 -23 32 -42c0 -28 -23 -51 -51 -51s-51 23 -51 51c0 72 66 123 141 123c93 0 174 -31 174 -113c0 -94 -68 -67 -68 -121z" fill="currentColor"/></g><g transform="translate(35.4, 7.673)"><path transform="scale(0.004, -0.004)" d="M215 137c67 0 111 -37 111 -92c0 -90 -111 -182 -215 -182c-67 0 -111 37 -111 92c0 90 111 182 215 182z" fill="currentColor"/></g><g transform="translate(35.47, 8.673)"><rect x="-0.0725" y="-0.8206" width="0.1451" height="3.247" ry="0.0471" fill="currentColor"/></g><g transform="translate(32.56, 8.673)"><rect x="-0.0725" y="-0.3206" width="0.1451" height="2.953" ry="0.0471" fill="currentColor"/></g><g transform="translate(32.01, 19.69)"><text font-family="serif" font-weight="bold" font-size="1.746" text-anchor="start" fill="currentColor"><tspan>10</tspan></text></g><g transform="translate(32.74, 6.118)"><path transform="scale(0.0022, -0.0022)" d="M194 486c16 0 29 15 41 15c13 0 24 -13 24 -31v-341c0 -47 35 -86 81 -86c14 0 21 -10 21 -21s-7 -22 -21 -22c-49 0 -97 14 -146 14s-96 -14 -145 -14c-14 0 -22 11 -22 22s8 21 22 21c46 0 80 39 80 86v137c0 23 -16 35 -30 35c-7 0 -13 -4 -17 -11l-34 -65 c-5 -10 -14 -15 -23 -15c-14 0 -28 12 -28 27c0 4 1 8 3 13l129 250c2 4 7 6 11 6c18 0 37 -20 54 -20z" fill="currentColor"/></g><g transform="translate(32.49, 8.173)"><path transform="scale(0.004, -0.004)" d="M215 137c67 0 111 -37 111 -92c0 -90 -111 -182 -215 -182c-67 0 -111 37 -111 92c0 90 111 182 215 182z" fill="currentColor"/></g><g transform="translate(38.94, 6.118)"><path transform="scale(0.0022, -0.0022)" d="M148 501c10 0 41 -15 72 -15c32 0 63 15 76 15c15 0 26 -11 26 -21c0 -4 -1 -7 -4 -10l-264 -291h134v4c0 60 50 41 75 85c7 11 8 24 14 36c3 7 10 10 17 10c11 0 24 -8 24 -25v-110h70c18 0 27 -14 27 -27s-9 -27 -27 -27h-70c2 -45 36 -82 80 -82c14 0 22 -10 22 -21 s-8 -22 -22 -22c-49 0 -96 14 -145 14s-97 -14 -146 -14c-14 0 -21 11 -21 22s7 21 21 21c44 0 79 37 81 82h-134c-43 0 -57 25 -57 42c0 5 1 10 3 12c73 81 123 182 123 291c0 17 11 31 25 31z" fill="currentColor"/></g><g transform="translate(37.3, 7.673)"><path transform="scale(0.004, -0.004)" d="M0 117c0 9 6 18 15 21l43 16v157c0 11 8 19 19 19s20 -8 20 -19v-142l81 30v156c0 11 9 20 20 20s19 -9 19 -20v-142l28 11c3 1 5 1 8 1c12 0 22 -10 22 -23v-57c0 -9 -6 -18 -15 -21l-43 -16v-157l28 10c3 1 5 1 8 1c12 0 22 -9 22 -22v-57c0 -9 -6 -18 -15 -21l-43 -16 v-157c0 -11 -8 -19 -19 -19s-20 8 -20 19v142l-81 -30v-156c0 -11 -9 -20 -20 -20s-19 9 -19 20v142l-28 -11c-3 -1 -5 -1 -8 -1c-12 0 -22 10 -22 23v57c0 9 6 18 15 21l43 16v157l-28 -10c-3 -1 -5 -1 -8 -1c-12 0 -22 9 -22 22v57zM178 94l-81 -30v-158l81 30v158z" fill="currentColor"/></g><g transform="translate(38.82, 8.673)"><rect x="-0.0725" y="-0.8206" width="0.1451" height="3.01" ry="0.0471" fill="currentColor"/></g><g transform="translate(38.27, 19.69)"><text font-family="serif" font-weight="bold" font-size="1.746" text-anchor="start" fill="currentColor"><tspan>13</tspan></text></g><g transform="translate(38.75, 7.673)"><path transform="scale(0.004, -0.004)" d="M215 137c67 0 111 -37 111 -92c0 -90 -111 -182 -215 -182c-67 0 -111 37 -111 92c0 90 111 182 215 182z" fill="currentColor"/></g><g transform="translate(22.79, 9.673)"><path transform="scale(0.004, -0.004)" d="M0 117c0 9 6 18 15 21l43 16v157c0 11 8 19 19 19s20 -8 20 -19v-142l81 30v156c0 11 9 20 20 20s19 -9 19 -20v-142l28 11c3 1 5 1 8 1c12 0 22 -10 22 -23v-57c0 -9 -6 -18 -15 -21l-43 -16v-157l28 10c3 1 5 1 8 1c12 0 22 -9 22 -22v-57c0 -9 -6 -18 -15 -21l-43 -16 v-157c0 -11 -8 -19 -19 -19s-20 8 -20 19v142l-81 -30v-156c0 -11 -9 -20 -20 -20s-19 9 -19 20v142l-28 -11c-3 -1 -5 -1 -8 -1c-12 0 -22 10 -22 23v57c0 9 6 18 15 21l43 16v157l-28 -10c-3 -1 -5 -1 -8 -1c-12 0 -22 9 -22 22v57zM178 94l-81 -30v-158l81 30v158z" fill="currentColor"/></g><g transform="translate(28.38, 8.673)"><rect x="-0.0725" y="-2.177" width="0.1451" height="2.497" ry="0.0471" fill="currentColor"/></g><g transform="translate(26.67, 21.2)"><text font-family="serif" font-weight="bold" font-size="1.746" text-anchor="start" fill="currentColor"><tspan>12</tspan></text></g><g transform="translate(27.15, 9.173)"><path transform="scale(0.004, -0.004)" d="M215 137c67 0 111 -37 111 -92c0 -90 -111 -182 -215 -182c-67 0 -111 37 -111 92c0 90 111 182 215 182z" fill="currentColor"/></g><g transform="translate(27.34, 5.757)"><path transform="scale(0.0022, -0.0022)" d="M148 501c10 0 41 -15 72 -15c32 0 63 15 76 15c15 0 26 -11 26 -21c0 -4 -1 -7 -4 -10l-264 -291h134v4c0 60 50 41 75 85c7 11 8 24 14 36c3 7 10 10 17 10c11 0 24 -8 24 -25v-110h70c18 0 27 -14 27 -27s-9 -27 -27 -27h-70c2 -45 36 -82 80 -82c14 0 22 -10 22 -21 s-8 -22 -22 -22c-49 0 -96 14 -145 14s-97 -14 -146 -14c-14 0 -21 11 -21 22s7 21 21 21c44 0 79 37 81 82h-134c-43 0 -57 25 -57 42c0 5 1 10 3 12c73 81 123 182 123 291c0 17 11 31 25 31z" fill="currentColor"/></g><g transform="translate(25.47, 8.673)"><rect x="-0.0725" y="-1.879" width="0.1451" height="2.699" ry="0.0471" fill="currentColor"/></g><g transform="translate(23.76, 21.2)"><text font-family="serif" font-weight="bold" font-size="1.746" text-anchor="start" fill="currentColor"><tspan>11</tspan></text></g><g transform="translate(24.51, 6.055)"><path transform="scale(0.0022, -0.0022)" d="M261 266c0 -54 85 -40 85 -125c0 -94 -83 -141 -186 -141c-84 0 -160 54 -160 133c0 32 26 58 58 58s58 -26 58 -58c0 -22 -36 -26 -36 -48c0 -33 42 -42 80 -42c41 0 56 50 56 98v21c0 44 -2 77 -43 77h-65c-18 0 -27 14 -27 27s9 27 27 27h65c42 0 43 36 43 83v11 c0 43 -20 70 -61 70c-34 0 -71 -8 -71 -38c0 -19 32 -23 32 -42c0 -28 -23 -51 -51 -51s-51 23 -51 51c0 72 66 123 141 123c93 0 174 -31 174 -113c0 -94 -68 -67 -68 -121z" fill="currentColor"/></g><g transform="translate(24.24, 9.673)"><path transform="scale(0.004, -0.004)" d="M215 137c67 0 111 -37 111 -92c0 -90 -111 -182 -215 -182c-67 0 -111 37 -111 92c0 90 111 182 215 182z" fill="currentColor"/></g><g transform="translate(30.05, 8.673)"><rect x="-0.0725" y="0.1794" width="0.1451" height="2.631" ry="0.0471" fill="currentColor"/></g><g transform="translate(30.1, 19.69)"><text font-family="serif" font-weight="bold" font-size="1.746" text-anchor="start" fill="currentColor"><tspan>9</tspan></text></g><g transform="translate(30.23, 6.118)"><path transform="scale(0.0022, -0.0022)" d="M194 486c16 0 29 15 41 15c13 0 24 -13 24 -31v-341c0 -47 35 -86 81 -86c14 0 21 -10 21 -21s-7 -22 -21 -22c-49 0 -97 14 -146 14s-96 -14 -145 -14c-14 0 -22 11 -22 22s8 21 22 21c46 0 80 39 80 86v137c0 23 -16 35 -30 35c-7 0 -13 -4 -17 -11l-34 -65 c-5 -10 -14 -15 -23 -15c-14 0 -28 12 -28 27c0 4 1 8 3 13l129 250c2 4 7 6 11 6c18 0 37 -20 54 -20z" fill="currentColor"/></g><g transform="translate(29.98, 8.673)"><path transform="scale(0.004, -0.004)" d="M215 137c67 0 111 -37 111 -92c0 -90 -111 -182 -215 -182c-67 0 -111 37 -111 92c0 90 111 182 215 182z" fill="currentColor"/></g></svg>