<svg preserveAspectRatio="xMidYMid meet" xmlns="http://www.w3.org/2000/svg" viewBox="-0.0786 -0.023 55.7 18.06"><g transform="translate(0, 5.777)"><line stroke-linejoin="round" stroke-linecap="round" stroke-width="0.1116" stroke="currentColor" x1="0.0558" y1="0" x2="55.56" y2="0"/></g><g transform="translate(0, 4.777)"><line stroke-linejoin="round" stroke-linecap="round" stroke-width="0.1116" stroke="currentColor" x1="0.0558" y1="0" x2="55.56" y2="0"/></g><g transform="translate(0, 3.777)"><line stroke-linejoin="round" stroke-linecap="round" stroke-width="0.1116" stroke="currentColor" x1="0.0558" y1="0" x2="55.56" y2="0"/></g><g transform="translate(0, 2.777)"><line stroke-linejoin="round" stroke-linecap="round" stroke-width="0.1116" stroke="currentColor" x1="0.0558" y1="0" x2="55.56" y2="0"/></g><g transform="translate(0, 1.777)"><line stroke-linejoin="round" stroke-linecap="round" stroke-width="0.1116" stroke="currentColor" x1="0.0558" y1="0" x2="55.56" y2="0"/></g><g transform="translate(0, 17.38)"><line stroke-linejoin="round" stroke-linecap="round" stroke-width="0.1116" stroke="currentColor" x1="0.0558" y1="0" x2="55.56" y2="0"/></g><g transform="translate(0, 15.88)"><line stroke-linejoin="round" stroke-linecap="round" stroke-width="0.1116" stroke="currentColor" x1="0.0558" y1="0" x2="55.56" y2="0"/></g><g transform="translate(0, 14.38)"><line stroke-linejoin="round" stroke-linecap="round" stroke-width="0.1116" stroke="currentColor" x1="0.0558" y1="0" x2="55.56" y2="0"/></g><g transform="translate(0, 12.88)"><line stroke-linejoin="round" stroke-linecap="round" stroke-width="0.1116" stroke="currentColor" x1="0.0558" y1="0" x2="55.56" y2="0"/></g><g transform="translate(0, 11.38)"><line stroke-linejoin="round" stroke-linecap="round" stroke-width="0.1116" stroke="currentColor" x1="0.0558" y1="0" x2="55.56" y2="0"/></g><g transform="translate(0, 9.881)"><line stroke-linejoin="round" stroke-linecap="round" stroke-width="0.1116" stroke="currentColor" x1="0.0558" y1="0" x2="55.56" y2="0"/></g><g transform="translate(0, 6.777)"><rect x="13.02" y="-0.1058" width="1.954" height="0.2116" ry="0.1058" fill="currentColor"/></g><g transform="translate(0, 6.777)"><rect x="10.5" y="-0.1058" width="1.954" height="0.2116" ry="0.1058" fill="currentColor"/></g><g transform="translate(0, 6.777)"><rect x="7.989" y="-0.1058" width="1.954" height="0.2116" ry="0.1058" fill="currentColor"/></g><g transform="translate(0, 7.777)"><rect x="7.989" y="-0.1058" width="1.954" height="0.2116" ry="0.1058" fill="currentColor"/></g><g transform="translate(0, 6.777)"><rect x="5.474" y="-0.1058" width="1.954" height="0.2116" ry="0.1058" fill="currentColor"/></g><g transform="translate(0, 7.777)"><rect x="5.474" y="-0.1058" width="1.954" height="0.2116" ry="0.1058" fill="currentColor"/></g><g transform="translate(37.78, 13.51)"><text font-family="serif" font-weight="bold" font-size="1.746" text-anchor="start" fill="currentColor"><tspan>5</tspan></text></g><g transform="translate(37.73, 3.777)"><rect x="-0.0725" y="-0.3206" width="0.1451" height="2.502" ry="0.0471" fill="currentColor"/></g><g transform="translate(37.66, 3.277)"><path transform="scale(0.004, -0.004)" d="M215 137c67 0 111 -37 111 -92c0 -90 -111 -182 -215 -182c-67 0 -111 37 -111 92c0 90 111 182 215 182z" fill="currentColor"/></g><g transform="translate(40.24, 3.777)"><rect x="-0.0725" y="-0.8206" width="0.1451" height="2.893" ry="0.0471" fill="currentColor"/></g><g transform="translate(40.29, 12.02)"><text font-family="serif" font-weight="bold" font-size="1.746" text-anchor="start" fill="currentColor"><tspan>3</tspan></text></g><g transform="translate(40.17, 2.777)"><path transform="scale(0.004, -0.004)" d="M215 137c67 0 111 -37 111 -92c0 -90 -111 -182 -215 -182c-67 0 -111 37 -111 92c0 90 111 182 215 182z" fill="currentColor"/></g><g transform="translate(43.52, 2.777)"><path transform="scale(0.004, -0.004)" d="M215 137c67 0 111 -37 111 -92c0 -90 -111 -182 -215 -182c-67 0 -111 37 -111 92c0 90 111 182 215 182z" fill="currentColor"/></g><g transform="translate(32.62, 4.277)"><path transform="scale(0.004, -0.004)" d="M215 137c67 0 111 -37 111 -92c0 -90 -111 -182 -215 -182c-67 0 -111 37 -111 92c0 90 111 182 215 182z" fill="currentColor"/></g><g transform="translate(31.34, 3.777)"><rect x="-0.0725" y="-2.275" width="0.1451" height="3.095" ry="0.0471" fill="currentColor"/></g><g transform="translate(30.23, 15.01)"><text font-family="serif" font-weight="bold" font-size="1.746" text-anchor="start" fill="currentColor"><tspan>5</tspan></text></g><g transform="translate(30.1, 4.777)"><path transform="scale(0.004, -0.004)" d="M215 137c67 0 111 -37 111 -92c0 -90 -111 -182 -215 -182c-67 0 -111 37 -111 92c0 90 111 182 215 182z" fill="currentColor"/></g><g transform="translate(37.66, 5.961)"><polygon stroke-linejoin="round" stroke-linecap="round" stroke-width="0.0941" fill="currentColor" stroke="currentColor" points="8.479 -0.5613 8.479 -0.1755 0.0471 0.1929 0.0471 -0.1929"/></g><g transform="translate(36.36, 3.777)"><rect x="-0.0725" y="-2.808" width="0.1451" height="2.629" ry="0.0471" fill="currentColor"/></g><g transform="translate(35.25, 13.53)"><text font-family="serif" font-weight="bold" font-size="1.746" text-anchor="start" fill="currentColor"><tspan>4</tspan></text></g><g transform="translate(35.13, 3.777)"><path transform="scale(0.004, -0.004)" d="M215 137c67 0 111 -37 111 -92c0 -90 -111 -182 -215 -182c-67 0 -111 37 -111 92c0 90 111 182 215 182z" fill="currentColor"/></g><g transform="translate(33.85, 3.777)"><rect x="-0.0725" y="-2.541" width="0.1451" height="2.862" ry="0.0471" fill="currentColor"/></g><g transform="translate(32.74, 13.53)"><text font-family="serif" font-weight="bold" font-size="1.746" text-anchor="start" fill="currentColor"><tspan>2</tspan></text></g><g transform="translate(51.91, 1.277)"><path transform="scale(0.004, -0.004)" d="M215 137c67 0 111 -37 111 -92c0 -90 -111 -182 -215 -182c-67 0 -111 37 -111 92c0 90 111 182 215 182z" fill="currentColor"/></g><g transform="translate(51.98, 3.777)"><rect x="-0.0725" y="-2.321" width="0.1451" height="3.321" ry="0.0471" fill="currentColor"/></g><g transform="translate(52.03, 10.52)"><text font-family="serif" font-weight="bold" font-size="1.746" text-anchor="start" fill="currentColor"><tspan>3</tspan></text></g><g transform="translate(47.94, 1.777)"><path transform="scale(0.004, -0.004)" d="M0 117c0 9 6 18 15 21l43 16v157c0 11 8 19 19 19s20 -8 20 -19v-142l81 30v156c0 11 9 20 20 20s19 -9 19 -20v-142l28 11c3 1 5 1 8 1c12 0 22 -10 22 -23v-57c0 -9 -6 -18 -15 -21l-43 -16v-157l28 10c3 1 5 1 8 1c12 0 22 -9 22 -22v-57c0 -9 -6 -18 -15 -21l-43 -16 v-157c0 -11 -8 -19 -19 -19s-20 8 -20 19v142l-81 -30v-156c0 -11 -9 -20 -20 -20s-19 9 -19 20v142l-28 -11c-3 -1 -5 -1 -8 -1c-12 0 -22 10 -22 23v57c0 9 6 18 15 21l43 16v157l-28 -10c-3 -1 -5 -1 -8 -1c-12 0 -22 9 -22 22v57zM178 94l-81 -30v-158l81 30v158z" fill="currentColor"/></g><g transform="translate(28.75, 1.777)"><polygon stroke-linejoin="round" stroke-linecap="round" stroke-width="0.0941" fill="currentColor" stroke="currentColor" points="7.641 -1.009 7.641 -0.6229 0.0471 0.1929 0.0471 -0.1929"/></g><g transform="translate(17.01, 2.961)"><polygon stroke-linejoin="round" stroke-linecap="round" stroke-width="0.0941" fill="currentColor" stroke="currentColor" points="8.479 -0.3771 8.479 0.0087 0.0471 0.1929 0.0471 -0.1929"/></g><g transform="translate(6.958, 3.777)"><polygon stroke-linejoin="round" stroke-linecap="round" stroke-width="0.0941" fill="currentColor" stroke="currentColor" points="7.641 -0.3771 7.641 0.0087 0.0471 0.1929 0.0471 -0.1929"/></g><g transform="translate(46.11, 3.777)"><rect x="-0.0725" y="-1.321" width="0.1451" height="3.14" ry="0.0471" fill="currentColor"/></g><g transform="translate(46.16, 12.01)"><text font-family="serif" font-weight="bold" font-size="1.746" text-anchor="start" fill="currentColor"><tspan>5</tspan></text></g><g transform="translate(46.04, 2.277)"><path transform="scale(0.004, -0.004)" d="M215 137c67 0 111 -37 111 -92c0 -90 -111 -182 -215 -182c-67 0 -111 37 -111 92c0 90 111 182 215 182z" fill="currentColor"/></g><g transform="translate(42.07, 2.777)"><path transform="scale(0.004, -0.004)" d="M0 117c0 9 6 18 15 21l43 16v157c0 11 8 19 19 19s20 -8 20 -19v-142l81 30v156c0 11 9 20 20 20s19 -9 19 -20v-142l28 11c3 1 5 1 8 1c12 0 22 -10 22 -23v-57c0 -9 -6 -18 -15 -21l-43 -16v-157l28 10c3 1 5 1 8 1c12 0 22 -9 22 -22v-57c0 -9 -6 -18 -15 -21l-43 -16 v-157c0 -11 -8 -19 -19 -19s-20 8 -20 19v142l-81 -30v-156c0 -11 -9 -20 -20 -20s-19 9 -19 20v142l-28 -11c-3 -1 -5 -1 -8 -1c-12 0 -22 10 -22 23v57c0 9 6 18 15 21l43 16v157l-28 -10c-3 -1 -5 -1 -8 -1c-12 0 -22 9 -22 22v57zM178 94l-81 -30v-158l81 30v158z" fill="currentColor"/></g><g transform="translate(43.6, 3.777)"><rect x="-0.0725" y="-0.8206" width="0.1451" height="2.748" ry="0.0471" fill="currentColor"/></g><g transform="translate(49.54, 5.23)"><path transform="scale(0.004, -0.004)" d="M0 0h-18v250h18v-250zM0 0v250c96 59 222 149 222 259c0 57 -15 111 -40 162c-3 17 10 29 24 29c8 0 16 -5 21 -13c25 -56 40 -116 40 -178c0 -203 -267 -306 -267 -509z" fill="currentColor"/></g><g transform="translate(49.46, 3.777)"><rect x="-0.0725" y="-1.821" width="0.1451" height="3.321" ry="0.0471" fill="currentColor"/></g><g transform="translate(49.51, 10.53)"><text font-family="serif" font-weight="bold" font-size="1.746" text-anchor="start" fill="currentColor"><tspan>2</tspan></text></g><g transform="translate(49.39, 1.777)"><path transform="scale(0.004, -0.004)" d="M215 137c67 0 111 -37 111 -92c0 -90 -111 -182 -215 -182c-67 0 -111 37 -111 92c0 90 111 182 215 182z" fill="currentColor"/></g><g transform="translate(43.65, 12.03)"><text font-family="serif" font-weight="bold" font-size="1.746" text-anchor="start" fill="currentColor"><tspan>4</tspan></text></g><g transform="translate(12.06, 3.777)"><rect x="-0.0725" y="-0.1222" width="0.1451" height="3.443" ry="0.0471" fill="currentColor"/></g><g transform="translate(10.95, 16.53)"><text font-family="serif" font-weight="bold" font-size="1.746" text-anchor="start" fill="currentColor"><tspan>2</tspan></text></g><g transform="translate(10.83, 7.277)"><path transform="scale(0.004, -0.004)" d="M215 137c67 0 111 -37 111 -92c0 -90 -111 -182 -215 -182c-67 0 -111 37 -111 92c0 90 111 182 215 182z" fill="currentColor"/></g><g transform="translate(17.09, 3.777)"><rect x="-0.0725" y="-0.8174" width="0.1451" height="3.138" ry="0.0471" fill="currentColor"/></g><g transform="translate(15.98, 16.51)"><text font-family="serif" font-weight="bold" font-size="1.746" text-anchor="start" fill="currentColor"><tspan>5</tspan></text></g><g transform="translate(14.57, 3.777)"><rect x="-0.0725" y="-0.1825" width="0.1451" height="3.003" ry="0.0471" fill="currentColor"/></g><g transform="translate(13.46, 16.52)"><text font-family="serif" font-weight="bold" font-size="1.746" text-anchor="start" fill="currentColor"><tspan>3</tspan></text></g><g transform="translate(13.34, 6.777)"><path transform="scale(0.004, -0.004)" d="M215 137c67 0 111 -37 111 -92c0 -90 -111 -182 -215 -182c-67 0 -111 37 -111 92c0 90 111 182 215 182z" fill="currentColor"/></g><g transform="translate(5.92, 18.02)"><text font-family="serif" font-weight="bold" font-size="1.746" text-anchor="start" fill="currentColor"><tspan>3</tspan></text></g><g transform="translate(7.03, 3.777)"><rect x="-0.0725" y="-0.0017" width="0.1451" height="4.322" ry="0.0471" fill="currentColor"/></g><g transform="translate(0.9205, 12.18)"><text font-family="sans-serif" font-weight="bold" font-size="2.772" text-anchor="start" fill="currentColor"><tspan>T</tspan></text></g><g transform="translate(0.8, 14.64)"><text font-family="sans-serif" font-weight="bold" font-size="2.772" text-anchor="start" fill="currentColor"><tspan>A</tspan></text></g><g transform="translate(0.8, 17.11)"><text font-family="sans-serif" font-weight="bold" font-size="2.772" text-anchor="start" fill="currentColor"><tspan>B</tspan></text></g><g transform="translate(1.384, 8.58)"><text font-family="serif" font-style="italic" font-size="1.386" text-anchor="start" fill="currentColor"><tspan>8</tspan></text></g><g transform="translate(0.8, 4.777)"><path transform="scale(0.004, -0.004)" d="M646 2c0 -113 -74 -213 -180 -247c3 -34 5 -68 5 -102c0 -20 -1 -40 -2 -60c-7 -121 -91 -228 -209 -228c-108 0 -196 87 -196 196c0 58 53 104 112 104c54 0 95 -48 95 -104c0 -52 -43 -95 -95 -95c-10 0 -20 2 -29 6c26 -38 68 -63 116 -63h3c93 2 153 92 159 190 c1 19 2 37 2 56c0 30 -2 60 -4 90c-5 -1 -43 -8 -88 -8c-194 0 -333 180 -333 375c0 177 130 307 246 442c-31 98 -53 170 -53 347c0 115 55 223 148 290c7 5 16 4 22 -1c68 -80 134 -243 134 -357c0 -143 -85 -255 -178 -364c21 -68 40 -137 57 -206c1 0 5 1 11 1 c156 0 257 -129 257 -262zM462 -202c66 24 111 88 111 162c0 89 -65 178 -170 190c28 -135 50 -272 59 -352zM75 26c0 -145 141 -245 263 -245c1 0 46 0 81 6c-7 65 -27 206 -61 363c-79 -8 -124 -61 -124 -119c0 -43 25 -89 80 -121c5 -5 7 -11 7 -16 c0 -12 -10 -23 -22 -23c-16 0 -127 63 -127 188c0 89 58 175 161 198c-14 58 -29 116 -46 173c-106 -122 -212 -244 -212 -404zM406 1042c-99 -47 -162 -148 -162 -257c0 -49 13 -111 38 -191c79 97 144 199 144 324c0 33 0 63 -20 124z" fill="currentColor"/></g><g transform="translate(5.8, 8.277)"><path transform="scale(0.004, -0.004)" d="M215 137c67 0 111 -37 111 -92c0 -90 -111 -182 -215 -182c-67 0 -111 37 -111 92c0 90 111 182 215 182z" fill="currentColor"/></g><g transform="translate(-0.0786, 9.579)"><rect x="0" y="-7.858" width="0.1786" height="15.72" ry="0.0558" fill="currentColor"/></g><g transform="translate(9.544, 3.777)"><rect x="-0.0725" y="-0.062" width="0.1451" height="3.883" ry="0.0471" fill="currentColor"/></g><g transform="translate(8.435, 18.01)"><text font-family="serif" font-weight="bold" font-size="1.746" text-anchor="start" fill="currentColor"><tspan>5</tspan></text></g><g transform="translate(8.314, 7.777)"><path transform="scale(0.004, -0.004)" d="M215 137c67 0 111 -37 111 -92c0 -90 -111 -182 -215 -182c-67 0 -111 37 -111 92c0 90 111 182 215 182z" fill="currentColor"/></g><g transform="translate(15.86, 6.277)"><path transform="scale(0.004, -0.004)" d="M215 137c67 0 111 -37 111 -92c0 -90 -111 -182 -215 -182c-67 0 -111 37 -111 92c0 90 111 182 215 182z" fill="currentColor"/></g><g transform="translate(25.47, 3.777)"><rect x="-0.0725" y="-0.9984" width="0.1451" height="2.819" ry="0.0471" fill="currentColor"/></g><g transform="translate(24.36, 15.03)"><text font-family="serif" font-weight="bold" font-size="1.746" text-anchor="start" fill="currentColor"><tspan>2</tspan></text></g><g transform="translate(24.24, 5.777)"><path transform="scale(0.004, -0.004)" d="M215 137c67 0 111 -37 111 -92c0 -90 -111 -182 -215 -182c-67 0 -111 37 -111 92c0 90 111 182 215 182z" fill="currentColor"/></g><g transform="translate(22.95, 3.777)"><rect x="-0.0725" y="-0.9441" width="0.1451" height="3.265" ry="0.0471" fill="currentColor"/></g><g transform="translate(28.82, 3.777)"><rect x="-0.0725" y="-2.008" width="0.1451" height="3.328" ry="0.0471" fill="currentColor"/></g><g transform="translate(26.14, 5.277)"><path transform="scale(0.004, -0.004)" d="M0 117c0 9 6 18 15 21l43 16v157c0 11 8 19 19 19s20 -8 20 -19v-142l81 30v156c0 11 9 20 20 20s19 -9 19 -20v-142l28 11c3 1 5 1 8 1c12 0 22 -10 22 -23v-57c0 -9 -6 -18 -15 -21l-43 -16v-157l28 10c3 1 5 1 8 1c12 0 22 -9 22 -22v-57c0 -9 -6 -18 -15 -21l-43 -16 v-157c0 -11 -8 -19 -19 -19s-20 8 -20 19v142l-81 -30v-156c0 -11 -9 -20 -20 -20s-19 9 -19 20v142l-28 -11c-3 -1 -5 -1 -8 -1c-12 0 -22 10 -22 23v57c0 9 6 18 15 21l43 16v157l-28 -10c-3 -1 -5 -1 -8 -1c-12 0 -22 9 -22 22v57zM178 94l-81 -30v-158l81 30v158z" fill="currentColor"/></g><g transform="translate(27.71, 15.03)"><text font-family="serif" font-weight="bold" font-size="1.746" text-anchor="start" fill="currentColor"><tspan>4</tspan></text></g><g transform="translate(27.59, 5.277)"><path transform="scale(0.004, -0.004)" d="M215 137c67 0 111 -37 111 -92c0 -90 -111 -182 -215 -182c-67 0 -111 37 -111 92c0 90 111 182 215 182z" fill="currentColor"/></g><g transform="translate(17.76, 6.277)"><path transform="scale(0.004, -0.004)" d="M0 117c0 9 6 18 15 21l43 16v157c0 11 8 19 19 19s20 -8 20 -19v-142l81 30v156c0 11 9 20 20 20s19 -9 19 -20v-142l28 11c3 1 5 1 8 1c12 0 22 -10 22 -23v-57c0 -9 -6 -18 -15 -21l-43 -16v-157l28 10c3 1 5 1 8 1c12 0 22 -9 22 -22v-57c0 -9 -6 -18 -15 -21l-43 -16 v-157c0 -11 -8 -19 -19 -19s-20 8 -20 19v142l-81 -30v-156c0 -11 -9 -20 -20 -20s-19 9 -19 20v142l-28 -11c-3 -1 -5 -1 -8 -1c-12 0 -22 10 -22 23v57c0 9 6 18 15 21l43 16v157l-28 -10c-3 -1 -5 -1 -8 -1c-12 0 -22 9 -22 22v57zM178 94l-81 -30v-158l81 30v158z" fill="currentColor"/></g><g transform="translate(20.44, 3.777)"><rect x="-0.0725" y="-0.8898" width="0.1451" height="3.21" ry="0.0471" fill="currentColor"/></g><g transform="translate(19.33, 15.03)"><text font-family="serif" font-weight="bold" font-size="1.746" text-anchor="start" fill="currentColor"><tspan>1</tspan></text></g><g transform="translate(19.21, 6.277)"><path transform="scale(0.004, -0.004)" d="M215 137c67 0 111 -37 111 -92c0 -90 -111 -182 -215 -182c-67 0 -111 37 -111 92c0 90 111 182 215 182z" fill="currentColor"/></g><g transform="translate(21.84, 16.52)"><text font-family="serif" font-weight="bold" font-size="1.746" text-anchor="start" fill="currentColor"><tspan>6</tspan></text></g><g transform="translate(21.72, 6.277)"><path transform="scale(0.004, -0.004)" d="M215 137c67 0 111 -37 111 -92c0 -90 -111 -182 -215 -182c-67 0 -111 37 -111 92c0 90 111 182 215 182z" fill="currentColor"/></g></svg>