<svg preserveAspectRatio="xMidYMid meet" xmlns="http://www.w3.org/2000/svg" viewBox="-0.0786 -0 61.54 20.03"><g transform="translate(0, 8)"><line stroke-linejoin="round" stroke-linecap="round" stroke-width="0.1116" stroke="currentColor" x1="0.0558" y1="0" x2="61.41" y2="0"/></g><g transform="translate(0, 7)"><line stroke-linejoin="round" stroke-linecap="round" stroke-width="0.1116" stroke="currentColor" x1="0.0558" y1="0" x2="61.41" y2="0"/></g><g transform="translate(0, 6)"><line stroke-linejoin="round" stroke-linecap="round" stroke-width="0.1116" stroke="currentColor" x1="0.0558" y1="0" x2="61.41" y2="0"/></g><g transform="translate(0, 5)"><line stroke-linejoin="round" stroke-linecap="round" stroke-width="0.1116" stroke="currentColor" x1="0.0558" y1="0" x2="61.41" y2="0"/></g><g transform="translate(0, 4)"><line stroke-linejoin="round" stroke-linecap="round" stroke-width="0.1116" stroke="currentColor" x1="0.0558" y1="0" x2="61.41" y2="0"/></g><g transform="translate(0, 19.38)"><line stroke-linejoin="round" stroke-linecap="round" stroke-width="0.1116" stroke="currentColor" x1="0.0558" y1="0" x2="61.41" y2="0"/></g><g transform="translate(0, 17.88)"><line stroke-linejoin="round" stroke-linecap="round" stroke-width="0.1116" stroke="currentColor" x1="0.0558" y1="0" x2="61.41" y2="0"/></g><g transform="translate(0, 16.38)"><line stroke-linejoin="round" stroke-linecap="round" stroke-width="0.1116" stroke="currentColor" x1="0.0558" y1="0" x2="61.41" y2="0"/></g><g transform="translate(0, 14.88)"><line stroke-linejoin="round" stroke-linecap="round" stroke-width="0.1116" stroke="currentColor" x1="0.0558" y1="0" x2="61.41" y2="0"/></g><g transform="translate(0, 13.38)"><line stroke-linejoin="round" stroke-linecap="round" stroke-width="0.1116" stroke="currentColor" x1="0.0558" y1="0" x2="61.41" y2="0"/></g><g transform="translate(0, 11.88)"><line stroke-linejoin="round" stroke-linecap="round" stroke-width="0.1116" stroke="currentColor" x1="0.0558" y1="0" x2="61.41" y2="0"/></g><g transform="translate(0, 1)"><rect x="57.12" y="-0.1058" width="1.954" height="0.2116" ry="0.1058" fill="currentColor"/></g><g transform="translate(0, 2)"><rect x="57.12" y="-0.1058" width="1.954" height="0.2116" ry="0.1058" fill="currentColor"/></g><g transform="translate(0, 3)"><rect x="57.12" y="-0.1058" width="1.954" height="0.2116" ry="0.1058" fill="currentColor"/></g><g transform="translate(0, 2)"><rect x="54.36" y="-0.1058" width="1.804" height="0.2116" ry="0.1058" fill="currentColor"/></g><g transform="translate(0, 3)"><rect x="54.21" y="-0.1058" width="1.954" height="0.2116" ry="0.1058" fill="currentColor"/></g><g transform="translate(0, 2)"><rect x="50.86" y="-0.1058" width="1.954" height="0.2116" ry="0.1058" fill="currentColor"/></g><g transform="translate(0, 3)"><rect x="50.86" y="-0.1058" width="1.954" height="0.2116" ry="0.1058" fill="currentColor"/></g><g transform="translate(0, 2)"><rect x="48.49" y="-0.1058" width="1.804" height="0.2116" ry="0.1058" fill="currentColor"/></g><g transform="translate(0, 3)"><rect x="48.34" y="-0.1058" width="1.954" height="0.2116" ry="0.1058" fill="currentColor"/></g><g transform="translate(0, 3)"><rect x="44.99" y="-0.1058" width="1.954" height="0.2116" ry="0.1058" fill="currentColor"/></g><g transform="translate(0, 3)"><rect x="42.08" y="-0.1058" width="1.954" height="0.2116" ry="0.1058" fill="currentColor"/></g><g transform="translate(42.48, 6)"><rect x="-0.0725" y="-2.821" width="0.1451" height="3.003" ry="0.0471" fill="currentColor"/></g><g transform="translate(41.92, 14.01)"><text font-family="serif" font-weight="bold" font-size="1.746" text-anchor="start" fill="currentColor"><tspan>10</tspan></text></g><g transform="translate(42.41, 3)"><path transform="scale(0.004, -0.004)" d="M215 137c67 0 111 -37 111 -92c0 -90 -111 -182 -215 -182c-67 0 -111 37 -111 92c0 90 111 182 215 182z" fill="currentColor"/></g><g transform="translate(38.44, 3.5)"><path transform="scale(0.004, -0.004)" d="M0 117c0 9 6 18 15 21l43 16v157c0 11 8 19 19 19s20 -8 20 -19v-142l81 30v156c0 11 9 20 20 20s19 -9 19 -20v-142l28 11c3 1 5 1 8 1c12 0 22 -10 22 -23v-57c0 -9 -6 -18 -15 -21l-43 -16v-157l28 10c3 1 5 1 8 1c12 0 22 -9 22 -22v-57c0 -9 -6 -18 -15 -21l-43 -16 v-157c0 -11 -8 -19 -19 -19s-20 8 -20 19v142l-81 -30v-156c0 -11 -9 -20 -20 -20s-19 9 -19 20v142l-28 -11c-3 -1 -5 -1 -8 -1c-12 0 -22 10 -22 23v57c0 9 6 18 15 21l43 16v157l-28 -10c-3 -1 -5 -1 -8 -1c-12 0 -22 9 -22 22v57zM178 94l-81 -30v-158l81 30v158z" fill="currentColor"/></g><g transform="translate(45.39, 6)"><rect x="-0.0725" y="-3.321" width="0.1451" height="3.443" ry="0.0471" fill="currentColor"/></g><g transform="translate(44.83, 14.03)"><text font-family="serif" font-weight="bold" font-size="1.746" text-anchor="start" fill="currentColor"><tspan>12</tspan></text></g><g transform="translate(45.32, 2.5)"><path transform="scale(0.004, -0.004)" d="M215 137c67 0 111 -37 111 -92c0 -90 -111 -182 -215 -182c-67 0 -111 37 -111 92c0 90 111 182 215 182z" fill="currentColor"/></g><g transform="translate(36.54, 4)"><path transform="scale(0.004, -0.004)" d="M215 137c67 0 111 -37 111 -92c0 -90 -111 -182 -215 -182c-67 0 -111 37 -111 92c0 90 111 182 215 182z" fill="currentColor"/></g><g transform="translate(36.06, 15.53)"><text font-family="serif" font-weight="bold" font-size="1.746" text-anchor="start" fill="currentColor"><tspan>11</tspan></text></g><g transform="translate(33.26, 6)"><rect x="-0.0725" y="-1.321" width="0.1451" height="2.893" ry="0.0471" fill="currentColor"/></g><g transform="translate(33.31, 15.51)"><text font-family="serif" font-weight="bold" font-size="1.746" text-anchor="start" fill="currentColor"><tspan>9</tspan></text></g><g transform="translate(33.19, 4.5)"><path transform="scale(0.004, -0.004)" d="M215 137c67 0 111 -37 111 -92c0 -90 -111 -182 -215 -182c-67 0 -111 37 -111 92c0 90 111 182 215 182z" fill="currentColor"/></g><g transform="translate(42.41, 6.184)"><polygon stroke-linejoin="round" stroke-linecap="round" stroke-width="0.0941" fill="currentColor" stroke="currentColor" points="8.875 -0.3771 8.875 0.0087 0.0471 0.1929 0.0471 -0.1929"/></g><g transform="translate(39.96, 6)"><rect x="-0.0725" y="-2.321" width="0.1451" height="3.327" ry="0.0471" fill="currentColor"/></g><g transform="translate(40.01, 14.01)"><text font-family="serif" font-weight="bold" font-size="1.746" text-anchor="start" fill="currentColor"><tspan>9</tspan></text></g><g transform="translate(39.89, 3.5)"><path transform="scale(0.004, -0.004)" d="M215 137c67 0 111 -37 111 -92c0 -90 -111 -182 -215 -182c-67 0 -111 37 -111 92c0 90 111 182 215 182z" fill="currentColor"/></g><g transform="translate(35.09, 4)"><path transform="scale(0.004, -0.004)" d="M0 117c0 9 6 18 15 21l43 16v157c0 11 8 19 19 19s20 -8 20 -19v-142l81 30v156c0 11 9 20 20 20s19 -9 19 -20v-142l28 11c3 1 5 1 8 1c12 0 22 -10 22 -23v-57c0 -9 -6 -18 -15 -21l-43 -16v-157l28 10c3 1 5 1 8 1c12 0 22 -9 22 -22v-57c0 -9 -6 -18 -15 -21l-43 -16 v-157c0 -11 -8 -19 -19 -19s-20 8 -20 19v142l-81 -30v-156c0 -11 -9 -20 -20 -20s-19 9 -19 20v142l-28 -11c-3 -1 -5 -1 -8 -1c-12 0 -22 10 -22 23v57c0 9 6 18 15 21l43 16v157l-28 -10c-3 -1 -5 -1 -8 -1c-12 0 -22 9 -22 22v57zM178 94l-81 -30v-158l81 30v158z" fill="currentColor"/></g><g transform="translate(36.61, 6)"><rect x="-0.0725" y="-1.821" width="0.1451" height="3.11" ry="0.0471" fill="currentColor"/></g><g transform="translate(57.52, 6)"><rect x="-0.0725" y="-4.821" width="0.1451" height="4.821" ry="0.0471" fill="currentColor"/></g><g transform="translate(56.96, 12.53)"><text font-family="serif" font-weight="bold" font-size="1.746" text-anchor="start" fill="currentColor"><tspan>12</tspan></text></g><g transform="translate(57.45, 1)"><path transform="scale(0.004, -0.004)" d="M215 137c67 0 111 -37 111 -92c0 -90 -111 -182 -215 -182c-67 0 -111 37 -111 92c0 90 111 182 215 182z" fill="currentColor"/></g><g transform="translate(53.09, 1.5)"><path transform="scale(0.004, -0.004)" d="M0 117c0 9 6 18 15 21l43 16v157c0 11 8 19 19 19s20 -8 20 -19v-142l81 30v156c0 11 9 20 20 20s19 -9 19 -20v-142l28 11c3 1 5 1 8 1c12 0 22 -10 22 -23v-57c0 -9 -6 -18 -15 -21l-43 -16v-157l28 10c3 1 5 1 8 1c12 0 22 -9 22 -22v-57c0 -9 -6 -18 -15 -21l-43 -16 v-157c0 -11 -8 -19 -19 -19s-20 8 -20 19v142l-81 -30v-156c0 -11 -9 -20 -20 -20s-19 9 -19 20v142l-28 -11c-3 -1 -5 -1 -8 -1c-12 0 -22 10 -22 23v57c0 9 6 18 15 21l43 16v157l-28 -10c-3 -1 -5 -1 -8 -1c-12 0 -22 9 -22 22v57zM178 94l-81 -30v-158l81 30v158z" fill="currentColor"/></g><g transform="translate(30.37, 7.816)"><polygon stroke-linejoin="round" stroke-linecap="round" stroke-width="0.0941" fill="currentColor" stroke="currentColor" points="9.619 -1.009 9.619 -0.6229 0.0471 0.1929 0.0471 -0.1929"/></g><g transform="translate(18.24, 8.816)"><polygon stroke-linejoin="round" stroke-linecap="round" stroke-width="0.0941" fill="currentColor" stroke="currentColor" points="9.714 -0.8245 9.714 -0.4387 0.0471 0.1929 0.0471 -0.1929"/></g><g transform="translate(6.958, 4.816)"><polygon stroke-linejoin="round" stroke-linecap="round" stroke-width="0.0941" fill="currentColor" stroke="currentColor" points="9.714 -1.193 9.714 -0.8071 0.0471 0.1929 0.0471 -0.1929"/></g><g transform="translate(47.22, 2)"><path transform="scale(0.004, -0.004)" d="M0 117c0 9 6 18 15 21l43 16v157c0 11 8 19 19 19s20 -8 20 -19v-142l81 30v156c0 11 9 20 20 20s19 -9 19 -20v-142l28 11c3 1 5 1 8 1c12 0 22 -10 22 -23v-57c0 -9 -6 -18 -15 -21l-43 -16v-157l28 10c3 1 5 1 8 1c12 0 22 -9 22 -22v-57c0 -9 -6 -18 -15 -21l-43 -16 v-157c0 -11 -8 -19 -19 -19s-20 8 -20 19v142l-81 -30v-156c0 -11 -9 -20 -20 -20s-19 9 -19 20v142l-28 -11c-3 -1 -5 -1 -8 -1c-12 0 -22 10 -22 23v57c0 9 6 18 15 21l43 16v157l-28 -10c-3 -1 -5 -1 -8 -1c-12 0 -22 9 -22 22v57zM178 94l-81 -30v-158l81 30v158z" fill="currentColor"/></g><g transform="translate(51.18, 1.5)"><path transform="scale(0.004, -0.004)" d="M215 137c67 0 111 -37 111 -92c0 -90 -111 -182 -215 -182c-67 0 -111 37 -111 92c0 90 111 182 215 182z" fill="currentColor"/></g><g transform="translate(48.74, 6)"><rect x="-0.0725" y="-3.821" width="0.1451" height="3.874" ry="0.0471" fill="currentColor"/></g><g transform="translate(48.79, 12.51)"><text font-family="serif" font-weight="bold" font-size="1.746" text-anchor="start" fill="currentColor"><tspan>9</tspan></text></g><g transform="translate(48.67, 2)"><path transform="scale(0.004, -0.004)" d="M215 137c67 0 111 -37 111 -92c0 -90 -111 -182 -215 -182c-67 0 -111 37 -111 92c0 90 111 182 215 182z" fill="currentColor"/></g><g transform="translate(54.68, 5.953)"><path transform="scale(0.004, -0.004)" d="M0 0h-18v250h18v-250zM0 0v250c96 59 222 149 222 259c0 57 -15 111 -40 162c-3 17 10 29 24 29c8 0 16 -5 21 -13c25 -56 40 -116 40 -178c0 -203 -267 -306 -267 -509z" fill="currentColor"/></g><g transform="translate(54.61, 6)"><rect x="-0.0725" y="-4.321" width="0.1451" height="4.321" ry="0.0471" fill="currentColor"/></g><g transform="translate(54.05, 12.53)"><text font-family="serif" font-weight="bold" font-size="1.746" text-anchor="start" fill="currentColor"><tspan>11</tspan></text></g><g transform="translate(54.54, 1.5)"><path transform="scale(0.004, -0.004)" d="M215 137c67 0 111 -37 111 -92c0 -90 -111 -182 -215 -182c-67 0 -111 37 -111 92c0 90 111 182 215 182z" fill="currentColor"/></g><g transform="translate(51.26, 6)"><rect x="-0.0725" y="-4.321" width="0.1451" height="4.322" ry="0.0471" fill="currentColor"/></g><g transform="translate(50.7, 12.51)"><text font-family="serif" font-weight="bold" font-size="1.746" text-anchor="start" fill="currentColor"><tspan>10</tspan></text></g><g transform="translate(13.74, 6)"><rect x="-0.0725" y="-1.879" width="0.1451" height="2.699" ry="0.0471" fill="currentColor"/></g><g transform="translate(11.06, 7)"><path transform="scale(0.004, -0.004)" d="M0 117c0 9 6 18 15 21l43 16v157c0 11 8 19 19 19s20 -8 20 -19v-142l81 30v156c0 11 9 20 20 20s19 -9 19 -20v-142l28 11c3 1 5 1 8 1c12 0 22 -10 22 -23v-57c0 -9 -6 -18 -15 -21l-43 -16v-157l28 10c3 1 5 1 8 1c12 0 22 -9 22 -22v-57c0 -9 -6 -18 -15 -21l-43 -16 v-157c0 -11 -8 -19 -19 -19s-20 8 -20 19v142l-81 -30v-156c0 -11 -9 -20 -20 -20s-19 9 -19 20v142l-28 -11c-3 -1 -5 -1 -8 -1c-12 0 -22 10 -22 23v57c0 9 6 18 15 21l43 16v157l-28 -10c-3 -1 -5 -1 -8 -1c-12 0 -22 9 -22 22v57zM178 94l-81 -30v-158l81 30v158z" fill="currentColor"/></g><g transform="translate(12.02, 18.53)"><text font-family="serif" font-weight="bold" font-size="1.746" text-anchor="start" fill="currentColor"><tspan>11</tspan></text></g><g transform="translate(12.51, 7)"><path transform="scale(0.004, -0.004)" d="M215 137c67 0 111 -37 111 -92c0 -90 -111 -182 -215 -182c-67 0 -111 37 -111 92c0 90 111 182 215 182z" fill="currentColor"/></g><g transform="translate(18.24, 6)"><path transform="scale(0.004, -0.004)" d="M215 137c67 0 111 -37 111 -92c0 -90 -111 -182 -215 -182c-67 0 -111 37 -111 92c0 90 111 182 215 182z" fill="currentColor"/></g><g transform="translate(16.65, 6)"><rect x="-0.0725" y="-2.177" width="0.1451" height="2.497" ry="0.0471" fill="currentColor"/></g><g transform="translate(14.93, 18.53)"><text font-family="serif" font-weight="bold" font-size="1.746" text-anchor="start" fill="currentColor"><tspan>12</tspan></text></g><g transform="translate(15.42, 6.5)"><path transform="scale(0.004, -0.004)" d="M215 137c67 0 111 -37 111 -92c0 -90 -111 -182 -215 -182c-67 0 -111 37 -111 92c0 90 111 182 215 182z" fill="currentColor"/></g><g transform="translate(5.318, 20.03)"><text font-family="serif" font-weight="bold" font-size="1.746" text-anchor="start" fill="currentColor"><tspan>12</tspan></text></g><g transform="translate(7.03, 6)"><rect x="-0.0725" y="-1.192" width="0.1451" height="3.012" ry="0.0471" fill="currentColor"/></g><g transform="translate(0.9205, 14.17)"><text font-family="sans-serif" font-weight="bold" font-size="2.772" text-anchor="start" fill="currentColor"><tspan>T</tspan></text></g><g transform="translate(0.8, 16.64)"><text font-family="sans-serif" font-weight="bold" font-size="2.772" text-anchor="start" fill="currentColor"><tspan>A</tspan></text></g><g transform="translate(0.8, 19.1)"><text font-family="sans-serif" font-weight="bold" font-size="2.772" text-anchor="start" fill="currentColor"><tspan>B</tspan></text></g><g transform="translate(1.384, 10.8)"><text font-family="serif" font-style="italic" font-size="1.386" text-anchor="start" fill="currentColor"><tspan>8</tspan></text></g><g transform="translate(0.8, 7)"><path transform="scale(0.004, -0.004)" d="M646 2c0 -113 -74 -213 -180 -247c3 -34 5 -68 5 -102c0 -20 -1 -40 -2 -60c-7 -121 -91 -228 -209 -228c-108 0 -196 87 -196 196c0 58 53 104 112 104c54 0 95 -48 95 -104c0 -52 -43 -95 -95 -95c-10 0 -20 2 -29 6c26 -38 68 -63 116 -63h3c93 2 153 92 159 190 c1 19 2 37 2 56c0 30 -2 60 -4 90c-5 -1 -43 -8 -88 -8c-194 0 -333 180 -333 375c0 177 130 307 246 442c-31 98 -53 170 -53 347c0 115 55 223 148 290c7 5 16 4 22 -1c68 -80 134 -243 134 -357c0 -143 -85 -255 -178 -364c21 -68 40 -137 57 -206c1 0 5 1 11 1 c156 0 257 -129 257 -262zM462 -202c66 24 111 88 111 162c0 89 -65 178 -170 190c28 -135 50 -272 59 -352zM75 26c0 -145 141 -245 263 -245c1 0 46 0 81 6c-7 65 -27 206 -61 363c-79 -8 -124 -61 -124 -119c0 -43 25 -89 80 -121c5 -5 7 -11 7 -16 c0 -12 -10 -23 -22 -23c-16 0 -127 63 -127 188c0 89 58 175 161 198c-14 58 -29 116 -46 173c-106 -122 -212 -244 -212 -404zM406 1042c-99 -47 -162 -148 -162 -257c0 -49 13 -111 38 -191c79 97 144 199 144 324c0 33 0 63 -20 124z" fill="currentColor"/></g><g transform="translate(5.8, 8)"><path transform="scale(0.004, -0.004)" d="M215 137c67 0 111 -37 111 -92c0 -90 -111 -182 -215 -182c-67 0 -111 37 -111 92c0 90 111 182 215 182z" fill="currentColor"/></g><g transform="translate(-0.0786, 11.69)"><rect x="0" y="-7.745" width="0.1786" height="15.49" ry="0.0558" fill="currentColor"/></g><g transform="translate(9.153, 7.5)"><path transform="scale(0.004, -0.004)" d="M215 137c67 0 111 -37 111 -92c0 -90 -111 -182 -215 -182c-67 0 -111 37 -111 92c0 90 111 182 215 182z" fill="currentColor"/></g><g transform="translate(7.703, 7.5)"><path transform="scale(0.004, -0.004)" d="M0 117c0 9 6 18 15 21l43 16v157c0 11 8 19 19 19s20 -8 20 -19v-142l81 30v156c0 11 9 20 20 20s19 -9 19 -20v-142l28 11c3 1 5 1 8 1c12 0 22 -10 22 -23v-57c0 -9 -6 -18 -15 -21l-43 -16v-157l28 10c3 1 5 1 8 1c12 0 22 -9 22 -22v-57c0 -9 -6 -18 -15 -21l-43 -16 v-157c0 -11 -8 -19 -19 -19s-20 8 -20 19v142l-81 -30v-156c0 -11 -9 -20 -20 -20s-19 9 -19 20v142l-28 -11c-3 -1 -5 -1 -8 -1c-12 0 -22 10 -22 23v57c0 9 6 18 15 21l43 16v157l-28 -10c-3 -1 -5 -1 -8 -1c-12 0 -22 9 -22 22v57zM178 94l-81 -30v-158l81 30v158z" fill="currentColor"/></g><g transform="translate(10.38, 6)"><rect x="-0.0725" y="-1.535" width="0.1451" height="2.856" ry="0.0471" fill="currentColor"/></g><g transform="translate(9.273, 18.51)"><text font-family="serif" font-weight="bold" font-size="1.746" text-anchor="start" fill="currentColor"><tspan>9</tspan></text></g><g transform="translate(27.93, 6)"><rect x="-0.0725" y="-0.8206" width="0.1451" height="3.01" ry="0.0471" fill="currentColor"/></g><g transform="translate(27.98, 15.51)"><text font-family="serif" font-weight="bold" font-size="1.746" text-anchor="start" fill="currentColor"><tspan>8</tspan></text></g><g transform="translate(27.86, 5)"><path transform="scale(0.004, -0.004)" d="M215 137c67 0 111 -37 111 -92c0 -90 -111 -182 -215 -182c-67 0 -111 37 -111 92c0 90 111 182 215 182z" fill="currentColor"/></g><g transform="translate(18.36, 17.01)"><text font-family="serif" font-weight="bold" font-size="1.746" text-anchor="start" fill="currentColor"><tspan>9</tspan></text></g><g transform="translate(24.58, 6)"><rect x="-0.0725" y="-0.8206" width="0.1451" height="3.227" ry="0.0471" fill="currentColor"/></g><g transform="translate(24.02, 17.03)"><text font-family="serif" font-weight="bold" font-size="1.746" text-anchor="start" fill="currentColor"><tspan>12</tspan></text></g><g transform="translate(24.5, 5)"><path transform="scale(0.004, -0.004)" d="M215 137c67 0 111 -37 111 -92c0 -90 -111 -182 -215 -182c-67 0 -111 37 -111 92c0 90 111 182 215 182z" fill="currentColor"/></g><g transform="translate(30.44, 6)"><rect x="-0.0725" y="-0.8206" width="0.1451" height="2.63" ry="0.0471" fill="currentColor"/></g><g transform="translate(29.89, 17.01)"><text font-family="serif" font-weight="bold" font-size="1.746" text-anchor="start" fill="currentColor"><tspan>13</tspan></text></g><g transform="translate(30.37, 5)"><path transform="scale(0.004, -0.004)" d="M215 137c67 0 111 -37 111 -92c0 -90 -111 -182 -215 -182c-67 0 -111 37 -111 92c0 90 111 182 215 182z" fill="currentColor"/></g><g transform="translate(26.41, 5)"><path transform="scale(0.004, -0.004)" d="M0 117c0 9 6 18 15 21l43 16v157c0 11 8 19 19 19s20 -8 20 -19v-142l81 30v156c0 11 9 20 20 20s19 -9 19 -20v-142l28 11c3 1 5 1 8 1c12 0 22 -10 22 -23v-57c0 -9 -6 -18 -15 -21l-43 -16v-157l28 10c3 1 5 1 8 1c12 0 22 -9 22 -22v-57c0 -9 -6 -18 -15 -21l-43 -16 v-157c0 -11 -8 -19 -19 -19s-20 8 -20 19v142l-81 -30v-156c0 -11 -9 -20 -20 -20s-19 9 -19 20v142l-28 -11c-3 -1 -5 -1 -8 -1c-12 0 -22 10 -22 23v57c0 9 6 18 15 21l43 16v157l-28 -10c-3 -1 -5 -1 -8 -1c-12 0 -22 9 -22 22v57zM178 94l-81 -30v-158l81 30v158z" fill="currentColor"/></g><g transform="translate(21.67, 6)"><rect x="-0.0725" y="-0.3206" width="0.1451" height="2.915" ry="0.0471" fill="currentColor"/></g><g transform="translate(21.59, 5.5)"><path transform="scale(0.004, -0.004)" d="M215 137c67 0 111 -37 111 -92c0 -90 -111 -182 -215 -182c-67 0 -111 37 -111 92c0 90 111 182 215 182z" fill="currentColor"/></g><g transform="translate(21.11, 17.03)"><text font-family="serif" font-weight="bold" font-size="1.746" text-anchor="start" fill="currentColor"><tspan>11</tspan></text></g><g transform="translate(18.31, 6)"><rect x="-0.0725" y="0.1794" width="0.1451" height="2.632" ry="0.0471" fill="currentColor"/></g><g transform="translate(20.14, 5.5)"><path transform="scale(0.004, -0.004)" d="M0 117c0 9 6 18 15 21l43 16v157c0 11 8 19 19 19s20 -8 20 -19v-142l81 30v156c0 11 9 20 20 20s19 -9 19 -20v-142l28 11c3 1 5 1 8 1c12 0 22 -10 22 -23v-57c0 -9 -6 -18 -15 -21l-43 -16v-157l28 10c3 1 5 1 8 1c12 0 22 -9 22 -22v-57c0 -9 -6 -18 -15 -21l-43 -16 v-157c0 -11 -8 -19 -19 -19s-20 8 -20 19v142l-81 -30v-156c0 -11 -9 -20 -20 -20s-19 9 -19 20v142l-28 -11c-3 -1 -5 -1 -8 -1c-12 0 -22 10 -22 23v57c0 9 6 18 15 21l43 16v157l-28 -10c-3 -1 -5 -1 -8 -1c-12 0 -22 9 -22 22v57zM178 94l-81 -30v-158l81 30v158z" fill="currentColor"/></g></svg>